/* XPM */
static char *_67710a1e0644784a5704c48aad45535htqqdWuWfkW0vpuM[] = {
/* columns rows colors chars-per-pixel */
"64 64 256 2 ",
"   c #081702",
".  c #120D00",
"X  c #280704",
"o  c #390901",
"O  c #391609",
"+  c #3A1713",
"@  c #172706",
"#  c #1C3702",
"$  c #273804",
"%  c #31320B",
"&  c #471B0A",
"*  c #581608",
"=  c #481A18",
"-  c #52120A",
";  c #661B09",
":  c #701008",
">  c #58240B",
",  c #5B2718",
"<  c #4E2C11",
"1  c #65270A",
"2  c #76280B",
"3  c #793809",
"4  c #662916",
"5  c #772715",
"6  c #6A3518",
"7  c #793717",
"8  c #69360B",
"9  c #532823",
"0  c #512E23",
"q  c #6A3A26",
"w  c #783824",
"e  c #6A2E25",
"r  c #521E2A",
"t  c #294504",
"y  c #354A06",
"u  c #395509",
"i  c #374C14",
"p  c #3B5621",
"a  c #465816",
"s  c #4E520C",
"d  c #76461B",
"f  c #65450D",
"g  c #466809",
"h  c #486317",
"j  c #567417",
"k  c #556D11",
"l  c #6C7018",
"z  c #52532B",
"x  c #7B4526",
"c  c #744B32",
"v  c #586B2A",
"b  c #6C722F",
"n  c #725141",
"m  c #787E49",
"M  c #90130A",
"N  c #B1190E",
"B  c #982918",
"V  c #86391A",
"C  c #953817",
"Z  c #8C2C0F",
"A  c #B92709",
"S  c #A93819",
"D  c #B63815",
"F  c #B02B0F",
"G  c #853A24",
"H  c #923228",
"J  c #AE3629",
"K  c #C6361A",
"L  c #CE280C",
"P  c #D9291A",
"I  c #9B4A0A",
"U  c #894518",
"Y  c #984A19",
"T  c #904D15",
"R  c #A9570C",
"E  c #B15D0E",
"W  c #A5471A",
"Q  c #AB5A16",
"!  c #B25414",
"~  c #B96517",
"^  c #B9600E",
"/  c #864525",
"(  c #9A4828",
")  c #985529",
"_  c #9B5936",
"`  c #8D5034",
"'  c #A64A28",
"]  c #A85B26",
"[  c #B85625",
"{  c #B54836",
"}  c #B14F31",
"|  c #9B6C3D",
" . c #956739",
".. c #9B733F",
"X. c #8F7030",
"o. c #B8672A",
"O. c #A76738",
"+. c #B66839",
"@. c #B8773A",
"#. c #AA6E2F",
"$. c #C14314",
"%. c #CA6D1C",
"&. c #CC4E34",
"*. c #C56529",
"=. c #C97526",
"-. c #C46B37",
";. c #C77A39",
":. c #D6742C",
">. c #E17729",
",. c #AC5843",
"<. c #9C6F41",
"1. c #9B6848",
"2. c #9D7244",
"3. c #9C774A",
"4. c #936F53",
"5. c #AA6A47",
"6. c #B86A45",
"7. c #A27445",
"8. c #A57847",
"9. c #A3754A",
"0. c #A57A4C",
"q. c #AA7C4D",
"w. c #AB7647",
"e. c #BB7946",
"r. c #A57D52",
"t. c #AB7E52",
"y. c #A87657",
"u. c #B47B56",
"i. c #AF6855",
"p. c #9B786B",
"a. c #AA7B6A",
"s. c #8E5742",
"d. c #C55845",
"f. c #D35B50",
"g. c #C77E44",
"h. c #CF704E",
"j. c #DE7D61",
"k. c #638519",
"l. c #6B8A13",
"z. c #698427",
"x. c #778E2E",
"c. c #6E992F",
"v. c #788E4B",
"b. c #7D816A",
"n. c #8D9031",
"m. c #B78734",
"M. c #86A72E",
"N. c #83901E",
"B. c #CD8539",
"V. c #D98739",
"C. c #D1852D",
"Z. c #E8933A",
"A. c #E88E34",
"S. c #E8A032",
"D. c #90924D",
"F. c #AD814E",
"G. c #A3864E",
"H. c #B8824B",
"J. c #AD8254",
"K. c #AD855A",
"L. c #AD895C",
"P. c #A78655",
"I. c #B28454",
"U. c #B68856",
"Y. c #B2865A",
"T. c #B48A5D",
"R. c #BA8C5C",
"E. c #BB8657",
"W. c #BD905F",
"Q. c #B6915C",
"!. c #AA9359",
"~. c #94AF53",
"^. c #A8AA58",
"/. c #94926C",
"(. c #AD8A64",
"). c #B58C61",
"_. c #B98E62",
"`. c #B88A67",
"'. c #B59164",
"]. c #BB9264",
"[. c #BD956A",
"{. c #BD9A6C",
"}. c #B49469",
"|. c #AD9573",
" X c #AF9176",
".X c #ADAC6F",
"XX c #9BA06A",
"oX c #C8854A",
"OX c #D78948",
"+X c #DB9449",
"@X c #C78855",
"#X c #D68B56",
"$X c #C5945C",
"%X c #D79659",
"&X c #C79A44",
"*X c #E59848",
"=X c #E59955",
"-X c #E58B48",
";X c #D3A45F",
":X c #EAA44A",
">X c #E9A659",
",X c #F6AA57",
"<X c #F1A84B",
"1X c #C28D64",
"2X c #C29463",
"3X c #C1966A",
"4X c #C29A6E",
"5X c #C99866",
"6X c #D69B64",
"7X c #C39D71",
"8X c #CA9C76",
"9X c #D19072",
"0X c #E2956E",
"qX c #C6A277",
"wX c #DCA876",
"eX c #D4AC6C",
"rX c #E7AA66",
"tX c #F2AB67",
"yX c #F8B56A",
"uX c #E9AA76",
"iX c #F8B977",
"pX c #E8B26F",
"aX c #ADC86F",
"sX c #94C061",
"dX c #FDCE49",
"fX c #FAC179",
"gX c #B59B85",
"hX c #AA9386",
"jX c #BCA48A",
"kX c #BCB396",
"lX c #B1A59A",
"zX c #CAA585",
"xX c #C8AB9A",
"cX c #D4B092",
"vX c #E8B787",
"bX c #EDB88E",
"nX c #D3BAAD",
"mX c #E5B5A1",
"MX c #E4BEB3",
"NX c #D89F86",
"BX c #BECD8F",
"VX c #CEC88F",
"CX c #FAC789",
"ZX c #FACB96",
"AX c #FAD29A",
"SX c #E8C996",
"DX c #D8C7BA",
"FX c #D5C4AD",
"GX c #F8D4A7",
"HX c #E5CAB8",
"JX c #EDD0AB",
"KX c #E4E1AE",
"LX c #DCCAC3",
"PX c #E8D5C8",
"IX c #ECD9D0",
"UX c #E8E5D6",
/* pixels */
"{.{.qX'.7XU.Y.I.J.J.J.Y.Y.T.U.R._.J.T.Y.].T._.J.2.2.2.<.<._.T.].3X].K.).r.T.K.r.).3X_.].T.}.].[.]._.R.8X7.I.q.9.E.Y.I.t.I.u.q.w.",
"qX{.{.[.qXT.Y.Y.I.J.J.I.Y.T.T.R.).I.T.Y._._.].J.9.2.<.<.2.]._._.4X).K.).J.T.K.J.T.[._.[.Y.[._.3X_._.1X7Xq.q.7.0.Y.U.U.u.I.I.F.q.",
"qX{.[.[.8XT.Y.I.J.Y.J.Y.U.T.R.T._.J.T.Y.R.T.].J.3.3.<.<.2.].T.].[.'.K.T.r.T.K.K.).3X_.[.Y.[.].}._._.2X4XJ.| <.q.I.Y.I.I.I.H.H.q.",
"qX7X{.'.7XT.J.r.J.t.J.I.U.T.T.T._.K.T.I.].T.].r.9.3.<.<.9.].T.].3X].Y.T.r.K.Y.K.).4X_.].T.[.]._._.].].2XT.7.| u.t.E.E.Y.t.I.I.q.",
"!.{.qXT.4XT.Y.q.J.J.J.I.I.U.R.T._.I.T.K.T.R._.J.9.3.<.<.3.]._._.[.'.L.T.0.Y.K.T.).4X_.[.Y.3X]._.2X_._.3XR.9.7.Y.q.I.Y.I.q.F.I.H.",
"G.'.{.'.4XR.T.J.J.J.J.J.Y.T.T.T.).Y.T.J._.T._.r.0.9.<.<.2.[.R._.[._.T.).r.K.K.K.Y.4X}.].T.4X}._.2XT.T.2XE.t.q.E.0.I.U.u.q.u.E.U.",
"P.L.}.[.7XT.I.Y.I.t.J.I.Y.R.U.T.T.J.T.Y._.T._.J.0.9.<.2.3.3XR._.[.].T.).r.K.J.K.Y.{._.}.T.4X].).].R.Y.3Xr.I.t.Y.w.t.I.q.q.q.U.R.",
"{.'.}.{.qXJ.0.t.J.J.t.J.T.U.U.T.T.J.T.J._.T._.J.r.0.<.<.9.[.)._.[._.T._.r.K.J.K.Y.3X[.].K.7X[.)._.T.Y.7X7.U.I.I.7.t.I.q.w.q.E.R.",
"{.'.T.[.7X_.0.0.J.t.r.I.I.U.T.I.}.y.).J.K._.R.F.P.....3.3.'.'.).3XY.(.t.3.4XJ.I.K.[.[.{.J.qX(.'._.R.R._.t.q.T.u.7.0.q.) 8.F.U.2X",
"{.'.L.'.[.Y.0.q.J.J.I.J.I.U.].T.R.q.R.J.).}.'.J.t.9.<.| 7.R.2X2X4XT.K.0.3.T.K.K.T.4X2X[.Y.8XI.]._._.Y._.I.t.R.Y.7.q.9.d 2.I.R.2X",
"{.}.).'.].Y.r.Y.t.Y.J.I.Y.T.R._.U.q.R.H._.5X2XE.oXe.e.e.e.#X@XoX%XH.H.H.H.U.I.L.).3X_.[.`.7XJ.]._._.)._.Y.t.R.I.w.t.| 8 O.U.$X2X",
"{.{.'.].[.Y.J._.t.r.r.J.T.T.T._.'.R.$X%X6X>X>X*X+X=X*X+X+X=X+XOX+XC.;.V.V.oX#XoX@X5X_.[.[.}.3.'._._.).].Y.u.R.I.7.u.<.8 | R.1X2X",
"}.'.'.'.].J.r.Y.J.8.0.K.T.U.R.5XeX6XrXtXyXyX,X,X,X,X,X,X,X>XtX>X*XA.A.A.>.V.+XOX;.oXB.H.R.I.0.{.1X_._.].Y.J._.I.7.Y.w.d | R.R.2X",
"!.'.'.[.].Y.r.I.J.q.r.I.U.E.5XpXyXyXyXyXyXbXfXbXfXiXyXyXyXtXiXiX<X<XS.*XV.Z.Z.V.>.%.%.=.;.@.@.@X_.1X_.[.Y.I._.I.7.I.q. .2.U.R.2X",
"'.'.).'.[.Y.q.J.J.q.r.I.Q.%XrXiXfXfXfXfXCXCXZXZXCXCXCXiXiXiXiXpXtXtXyXtX>X=X*X*XA.V.>.=.:.;.B.e.U.@XR.].Y.r.E.q.7.0.t.w.7.E.R.5X",
"'.L.L.'.].J.0.J.I.r.q.J.$XrXiXiXCXAXZXCXAXGXGXGXAXAXCXCXfXiXfXtXvXuXiXpXtX=X,X=X*XZ.V.A.V.+X6XH.H.E.U.1XJ.0.I.7.q.5.q.q.7.t.R.5X",
"!.L.).t.].P.F.J.).r.w.@X%XfXfXAXAXAXAXAXAXGXAXAXAXCXCXCXiXyXyXtX,XiXrXpX>XtX>X>X=X>XOX=X-X-X%X%X@Xg.Y.Y.P.2.t.1.9.J.U.q.q.H.U.2X",
"P.P.T.J.).J.J.J.P.q.9.R.wXZXAXAXAXSXCXfXrX>X>X>XrX6X%X6XB.B.B.oX#X#X@X%XOXOX%X+X=X%X%X%X6X6X6X6X6X6XU.I.Y.O.<.<.3.0.R.F.q.F.F.2X",
"L.P.).L.).t.Y.u.T.J.P.eXSX;XeX;Xm.#.#.m.&XQ.U.wXbXSXJXmXSXJXcXSXbXwX;X$XoX#.#.N.m.@.&XoXB.oXoX6X6X6X$XE.q. .7.<.8.0.W.I.q.F.q.$X",
"[.P.'.T.Y.Y._.J.t.K..XqX~.l N.N.l.z.k.z.sXBXaXVXKXKXKX.XXXb.m jXVXKXSXJXSXXXh y x.^.pXeX5X].$XE.@X@X6X5Xt. .2.3.U.0.U.J.w.q.q.W.",
"}.P.Q.K.).K.}.L.Q.^.^.x.g g j c.n.j g u M.sX~.D.m v.D.j $     j c.c.k z v b y # y v..XD.~.XXVXSXR.E.H.E._.r.G.).[.8.U.I.q.F.q.F.",
").P.L.J.Y.t.Q.D.aX~.j t t i t u c.j s u j sX~.h $ % v k t   $ l g y #   @ u p $ $ $ i t g x.x..XVXcXG.c K.}.).}.W.0.E.U.q.H.q...",
"T.L.T.J._.P.D.M.M.c.k.g i t @ t g $ $ z.j x.a $ % $ j g t # u k.g s i i a j j a %   . $ h z.$ z v.v.b s v D.(.}.q.2.R.U.F.U.H.8.",
"T.Q.'.u.3X!.n.M.M.M.c.k # t h b i   % l.j #   # % % a z.g g k l.x.x.s s k b v a % % $ # h h   @ t y a u y a b X.2. .E.U...U.W.R.",
"L.(.P.L._.G.n.~.~.c.z.h % $ a l + > 6 M.l.y $ h k 6 c l l k.c.M.n.f * 1 1 8 8 f > 8 f s s % @ @ @ t g j h # $ b X.2.R.I.I.I.R.2X",
"T.).L.K._.L.P.XX^.x.j j a % & 1 Z } 6.%Xe.) T b O.{ d.[ Y D.~.~.d > - M M Z Z Z F F W W  .1.q 9 < < k v h t % b 2.3.R.I.H.I.W.5X",
").T.K.K.Y.Y.L.!.gXD.v.v.m q - H { 0XvXmX9Xf.{ ] ) h.0XNXuXcXaX~.<.s.4.p.,.} W A N L K &.h.0Xf.J B 1 a h p h m /.G.q.].F.H.F.R.5X",
"T.L.(.K.J.Y.R.J.D.(.|.BXDXp.; s.zXHXIXUXUXLXMXnXnXMXHXIXIXKXBX}.jXgXlXkXkXzX1Xu.' { { d.f.j.,.J B > % $ t v XX|.J.r._.I.I.F.Q.W.",
"P.K.(.L.K.T.`.E.7.7.|.kXUXhX0 m gXxXnXmXJXHXLXPXPXHXJXFXmXmXgX8X X XgXxXDXMXDXDXMXnXxXxX Xi.w * ; , O   $ m XXXXF.9.R.I.U.F.U.$X",
"P.L.L.(.K.K.Y.Y.U.2.P.(.a.` H _ ' 6.h.h.f.6.@X0XiX=X#X;.*.+.} { 1.s.n c 4.p.hXxXnXLXHXmX9Xi.4 - 4 0 0 O % /.kXhXq.7.T.I.R.F.I.$X",
"P.).K.J.L.J.0.J._.L.U.e.S F K K h.0XiXrX#X%XpXpXe./ 6 3 C ] ,.f.F J V 8 0 6 4 c w ` H M J J J ,.G 4 0 + O n (.p.q.| I.U.R.F.I.$X",
"P.).J.J._.J.2.J.0.K.w.&.D :.-X-XuXJXJXrXrXGXGXrXx = r 4 Z I $.P P P K F B B V H J B M N J ( G ` J U 6 8 q q c r.0.| I.U.R.F.I.2X",
"J.(.(.K.).Y.Y.R.8.w.g.;.-.#X%XwXJXGXGXvXfXAXJXNX( 7 V 3 I =.-X*.L L D A A A A L F F N J ' / x _ c ` d I U w c y.9.<.q.T.U.I.U.W.",
"K.(.Y.K.Y.T.Y._.r.q.E.%X=XtX%XvXGXAXpX*X;XpXvXwX+.I Y Y Q V.-X[ ( ( 1 M K N N d.f.{ S S C ] e.O.2 4 ; 7 ` 0 c G.q.3.J.U.I.H.H.R.",
"(.).J.K.T.K.Y.R.T.I.1X0XoXoXe.6XbXvX$X#.;.%X%XoX+.+.6.5._ oXe.5 & w * : K J &.&.f.f.H ; 7 ) U 6 , = 9 n p.hX4.J.F.0.P.T.U.F.U.U.",
"(.).(.K.).J.r.Y.Y.Y.8X8XO.+.O.) o.5.c & 8 ` ) C ) g.O.x x _ 3 - < , - : M N N K f.,.* o * 6 > q hXlXlXnXUXLX|.0.0.q.J.U.H.F.U.U.",
"K.(.K.(.Y.t.r.r.I.T.4X8Xi.h.6.V V 6 & X O & 1 6 d x q & & & o O O X X - M M M B ( G & & < q 0 s.IXUXIXnXLXLXzXK.0.F.q.U.J.F.W.H.",
"P.K.Y.Y.).t.9.0.0.U.E.1X@Xh.+.J e 1 < O + & & 0 , 0 0 X X X + < O o < , * , : H G q 0 0 0 c e c p.p.p.5.a.mX Xy.F.K.F.U.F.F.W.F.",
"K.K.K.(.).r.2.q. .I.E.@Xg.-.[ } G C V 4 , , , = w x q O o & w G 5 4 e e e > r q c 9 = = - 4 ` , G 7 V U 6.a.E.$XJ.T.F.J.F.0.2XF.",
").).(.Y.Y.r.<.q.7.t.u.g.-.*.*.$.! D S : > 8 5 , w / d = 9 4 6 w 6 e q q , = = = + o X o 1 3 ] Y / ( ( ' } a.u.H.P.R.0.F.F.F.2XH.",
"K.(.(.).).Y.t.Y...J.E.6.} *.*.:.K A D S Y Y U 7 d / w 4 6 7 * , 4 4 > , , = = + o * ; 5 Z W [ o.) V 7 ` a.(.Y.q.R.I.q.8.U.| 5XU.",
"K.K.K.Y.).J.t.).0.E.1Xh.S B } &.K K >.:X*XC.OX%Xh.+.5.w.,.{ H : 4 ` 5 5 V 2 ; - * 1 U W ! [ OX*.7 2 3 _ `.u.Y.U.T.T.q.8.U.7.W.H.",
"K.K.K.Y.).J.I._.y.E.@XoX' B { H Z Q C.C.B.C.>XbXGXGXJX0Xf.f.&.A *.[ S ' [ W Z M Z Z / ' ;.OX=X;.7 7 ( @.@Xu.Y.U.I.].9...J.F.Q.R.",
"(.(.K.(.).J.0.Y.y.w.&X>Xg.Y w ; & `  .U / _ 8XAXIXPXbXj.d.&.K >.C.S.<X:X<Xo.M M M B Z [ -Xh.+.I V ] -.;.oXq.T.).T.R.| 7.F.H.U.2X",
"K.(.K.Y.Y.r.9.r.3.G.e.V.<X<X@X/ * 2 _ w * w 6.#XNX0Xf.&.J B 2 o.S.dXdXdX&XU * - * G Z W ! F F W ] g.-XB.@.q._.).T.R.| ..8.F.q.$X",
"K.).)._._.J.0.r.2.I.H.OX*XS.yXCXcXR.e.G > q ) d.d.&.&.{ w X X * U @.<X&Xd - - * ; ; : B M S -.j.%X=X-XB.oXt._.).R.T.O.....8...R.",
"(.).).`.}.J.0.t.| E.E.oXV.A.S.,XCXCXfX0X9XR._ V V 2 : * o X > ; * > 8 > 1 1 ; V [ o.o.;.;.#X%X#X%XOXB.g.E.Y.].R.q.q.8...| 8.w.F.",
"(.).(.Y._.t.9.0.7.r.K.H.$X*XA.A.Z.<XyXiXCXfXpX#X@.#.] ` U V Z 3 3 3 2 V I I E ~ o.B.oX@X>X%X=X%XOXOXg.@X1X_.}.Q. .2.F... .F.F.8.",
"L.K.}.T.R.Y.J.| 7.q.J.Y.2X5X6X6XC.C.A.Z.Z.<X<X:X*XZ.B.=.%.^ ! Q Q E E E R E ~ =.@.B.OXOXOXoX#X#X@X@X@X$XR.T.].T...I.8...q.q.H.I.",
"(.T._.Y.].I.q.<.2.q.t.u._.5X5X5X9X6XoXB.=.%.%.%.:.=.~ %.E E E E R R R R Q R E ~ ^ %.o.;.g.oXE.h.@X@X$X_.R.W.W.U.q.R.q...q.q.I.U.",
"K.T.).K.3XJ.8.7.7.r.Y.).`.`.3X9XzX8X9X5X#X#Xe.+.o.~ E E R R R I I R I I I I Q ] o.@.e.oX2X5X3X3X2XW._.].T.'.].T.F.Q.8.| 0.H.R.W.",
"L.).T.K.3Xr.7.u.7.q.Y.)._.).).].Q.T._.{.7XzXcXxXNXNX8X1X1XE.u.Y.w.q.u.u.T._.`.7XqXqXzX{.8X8X4X`.[.T.'.[.Q.W.].U.J.R.7...F.J.R.$X",
"K.).).K.].9.0.E...w.t._.3X_._.[._.t.y.r.}.|.xXcXPXUXPXLXLXLXPXPXDXLXDXDXHXDXnXnXxXxXjX{.}.[.)._.[.T.].}._.R.1XR.R.W.8.2.F.F.H.J.",
"(.)._.K.T.9.q.R.w.9.q.Y._._._.[.].J.T.t.K.K.{.).hXjXjXgXjXxXxXnXnXnXxXgXgXgX|.(.K.4X{.'.].[._._.]._.].2X_.R._.R.U.W.0.8.U.I.U.U.",
").(.].T.T.r.U.Y.q.w.0.u.1X`.).).Q.0.I.q.Y.y.`.y...0.7. .0.T.T.].[._.u.9.9.9.8.8.G.7X7XW.7X{.`.`.].)._.2XR.U.R.R.J.Q.8.8.R.U.U.R.",
"_.K.].).].J.E.J.r.r.t.Y.2X`.`.`.'.r.T.F.T.q.Q.9.9.0.7.1.G._.).`.}.'.J.3.9.9.9.8.'.{.qX}.[.{.`.3X_.)._.2XU.T._._.U.R.8.8.U.U.I.I.",
").).[.K.Y.Y.E.9.7.R.7.Y.3X_.Y.3X_.K.Y.r.I.J.E.9. .t.0.Y.<.].].Q.'.[.J.9.9.9.r.t.T.{.{.'.'.7X4XY.).T.].].U.T.].W.U.R.F.3.I.U.I.R.",
"K.T.).K.Y.Y.t.| | R.0.Y.`._.)._.T.P.J.0.Y.J.Y.9. .r.q.Y.2.].].T.Q.[.L.9.9.0.9.t.L.}.{.[.'.7X4X).].T.W.W.R.T.R.R.U.R.F.8.U.R.H.R.",
"(.].Y.T._.Y.7.|  .I.q.I._._.)._.T.q.r.9.J.J.Y.0. .t.t.U.0.[.].W.T.].K.9.9.y.9.y.P.[.7X[.[.{.[.).].T.W.].R.T.W.T.T.W.F.F.U.R.U.W.",
").[.K._._.T.<.q.7.u.t.u.`.`.Y._.T.q.r.3.J.Y.R.9.1.0.r.R.r.].[.'.'.].U.9.3.9.9.3.0.{.7X{.{.{.`._.3XT.Q.].R.W.].I.Q.W.J.0.R.R.U.W.",
"K.}.J.).Y.J.<.Y.t.q.q.u._._.Y.`.T.J.J.0.J.K.E.9.| w.r.Y.J.].[.R._.[.Y.9.9.0.9.0.r.[.{.'.{.4X).).[._._.].W.].W.T.R.W.J.q.R.U.H.R.",
"K.'.T.).Y.t.q.R.$X0.r.Y.3X_.Y.[._.P.J.0.Y.u.Y.7.| 9.t.Y.J.].].T.).}.J.2.<.r.r.y.r.{.[.[.7X{.T.`.[.R.W.].T.W.].U.Q.W.F.q.R.U.F.U.",
")._._.).T.I.I.I.E.9.Y.I.[._.)._._.J.Y.r.J.J.u.0.<.9.t.I.J._.{.T.T.].J.2.9.t.t.t.P.{.[.}.7X4X)._.].).].2XR.].].R.W.R.P.F.R.U.F.R.",
").Y.}.T.).t.I.0.u.7._.u._._.`._.).J.I.0.J.J.Y.9.7.9.t.J.T.R.[.T.T.].Y.2.9.t.y.t.K.7X{._.qX7X).].].W.{.2XW.R.W.T.W.W.H.F.R.U.F.U."
};
