/* XPM */
static char *_ef59026dab64359c53900472a3736e81sh3eIr9QxSZcN3D[] = {
/* columns rows colors chars-per-pixel */
"64 64 239 2 ",
"   c #017C4F",
".  c #097A4D",
"X  c #057E51",
"o  c #0B7D52",
"O  c #137D54",
"+  c #197E57",
"@  c #1D7F59",
"#  c #1E7552",
"$  c #177A4E",
"%  c #267B59",
"&  c #4A7D4D",
"*  c #5F7D5B",
"=  c #9E703F",
"-  c #9C6D43",
";  c #926D43",
":  c #9B744A",
">  c #9A7548",
",  c #9F7A50",
"<  c #A27646",
"1  c #A4794B",
"2  c #AA7C4D",
"3  c #A67846",
"4  c #B47D4C",
"5  c #A27B51",
"6  c #AA7F52",
"7  c #A97E5B",
"8  c #B77B53",
"9  c #B67F61",
"0  c #01834E",
"q  c #08854F",
"w  c #058454",
"e  c #0D8455",
"r  c #048955",
"t  c #0C8954",
"y  c #0D865A",
"u  c #068B59",
"i  c #0C8A5A",
"p  c #06845A",
"a  c #118455",
"s  c #128956",
"d  c #128559",
"f  c #19845B",
"g  c #128A5C",
"h  c #19895E",
"j  c #1B8154",
"k  c #0D905E",
"l  c #23845E",
"z  c #238152",
"x  c #138B61",
"c  c #1E8C62",
"v  c #1A8864",
"b  c #0E9060",
"n  c #139363",
"m  c #1D9165",
"M  c #1A986E",
"N  c #0A8D63",
"B  c #238C64",
"V  c #2D8D69",
"C  c #278965",
"Z  c #3B8D6B",
"A  c #259269",
"S  c #2B926A",
"D  c #24996D",
"F  c #249266",
"G  c #34926E",
"H  c #2E9870",
"J  c #359671",
"K  c #3C9473",
"L  c #3D9975",
"P  c #369A73",
"I  c #318B71",
"U  c #3EA47D",
"Y  c #4E8353",
"T  c #488758",
"R  c #538553",
"E  c #5B8156",
"W  c #558856",
"Q  c #54865A",
"!  c #5C865A",
"~  c #55895A",
"^  c #5A8B5B",
"/  c #598857",
"(  c #5E905F",
")  c #4B814F",
"_  c #61855B",
"`  c #778559",
"'  c #5A8C62",
"]  c #5B946C",
"[  c #5D9160",
"{  c #429474",
"}  c #459B79",
"|  c #5A9B77",
" . c #428E70",
".. c #63966D",
"X. c #629A73",
"o. c #689770",
"O. c #78926C",
"+. c #4BA17D",
"@. c #67A077",
"#. c #9C8454",
"$. c #9E8147",
"%. c #AD814E",
"&. c #AB844A",
"*. c #B4884D",
"=. c #A68455",
"-. c #AD8253",
";. c #AC8B53",
":. c #A58459",
">. c #AB855B",
",. c #AC8A5D",
"<. c #A48B5B",
"1. c #B38554",
"2. c #B48A56",
"3. c #BC8A56",
"4. c #B5855A",
"5. c #B48B5C",
"6. c #BA8C5B",
"7. c #BB835A",
"8. c #BE925F",
"9. c #B79255",
"0. c #AB8661",
"q. c #AD8A62",
"w. c #AF8F69",
"e. c #B48462",
"r. c #B48C62",
"t. c #BA8D63",
"y. c #B78364",
"u. c #AC9569",
"i. c #B49264",
"p. c #BC9264",
"a. c #BB946B",
"s. c #B69B6D",
"d. c #BC9B6C",
"f. c #B89969",
"g. c #B69B72",
"h. c #AF9570",
"j. c #B5A275",
"k. c #BAA274",
"l. c #C08C57",
"z. c #C18A68",
"x. c #C19564",
"c. c #C39669",
"v. c #C3996A",
"b. c #C79A69",
"n. c #CD9B73",
"m. c #C9A173",
"M. c #3F9C81",
"N. c #559980",
"B. c #4AA381",
"V. c #51A686",
"C. c #5DAA8C",
"Z. c #57A688",
"A. c #5CB192",
"S. c #64A88C",
"D. c #6CAD93",
"F. c #66AC90",
"G. c #74AE97",
"H. c #65B494",
"J. c #6AB496",
"K. c #66BA99",
"L. c #74B49A",
"P. c #7AB89F",
"I. c #7DBAA3",
"U. c #74BDA1",
"Y. c #7EC2A9",
"T. c #76C3A4",
"R. c #6EC1A3",
"E. c #83BBA5",
"W. c #84BDA9",
"Q. c #8BBEA9",
"!. c #8CBCA6",
"~. c #99BFAE",
"^. c #84C4AA",
"/. c #8CC2AC",
"(. c #83C9AF",
"). c #93CDB5",
"_. c #9DCBB6",
"`. c #9DCEB9",
"'. c #9BC6B3",
"]. c #98D1BB",
"[. c #8FCAB2",
"{. c #A3CEBC",
"}. c #AACFBE",
"|. c #A9D4BF",
" X c #B2C8BB",
".X c #ACD5C3",
"XX c #A8D9C5",
"oX c #B4D4C5",
"OX c #B4DCCA",
"+X c #BDDCCD",
"@X c #BAD4C7",
"#X c #BAE0CF",
"$X c #B4E3D3",
"%X c #BAE3D1",
"&X c #BFE7DE",
"*X c #AEE0C7",
"=X c #C2DCCE",
"-X c #C4DED1",
";X c #C9DED3",
":X c #D0DDD4",
">X c #C2E3D3",
",X c #CCE2D5",
"<X c #CEE4D8",
"1X c #CCEBDE",
"2X c #C5E9D8",
"3X c #D3E2D7",
"4X c #D1E6DA",
"5X c #D2EADE",
"6X c #D8E7DD",
"7X c #CFEFE2",
"8X c #D4EDE2",
"9X c #DBEBE4",
"0X c #DEEAE8",
"qX c #DBE6E5",
"wX c #CFF1E1",
"eX c #D6F2E5",
"rX c #D9F5E8",
"tX c #E4EBE4",
"yX c #E9EDE5",
"uX c #E4EDEA",
"iX c #EAEDE9",
"pX c #F8EFEE",
"aX c #EBF2EE",
"sX c #E5F5EA",
"dX c #F1F3EF",
"fX c #F5F5ED",
"gX c #F7EFF1",
"hX c #ECF6F1",
"jX c #E5FCF2",
"kX c #EDFBF4",
"lX c #EBF9F8",
"zX c #F4F6F3",
"xX c #FBF5F4",
"cX c #F4FAF5",
"vX c #F9F9F6",
"bX c #F2F7FA",
"nX c #FCF7F9",
"mX c #F5FCF9",
"MX c #FBFCFA",
/* pixels */
"c.v.d.x.b.3.4.=.-.>.4.>.4.5.r.r.r.4.r.>.a.r.t.>.: , ; ; : r.i.r.d.a.>.q.:.q.>.>.r.a.a.a.e.a.a.a.a.t.r.n.1 7 1 5 1.7.;.*.8 -.1.3 ",
"m.k.h.h.g.r.e.e.2 -.6 1.1.2.4.2.5.-.5.-.t.2.5.6 > 1 - > < 5.t.t.t.t.>.4.-.4.-.-.5.t.t.t.>.p.r.p.t.6.5.c.1 6 1 1 y.9 0.>.7 =.7.3 ",
"m.j.O._ _ ^ R ! W Q W Q Q Q W W ! R / R ^ Q ^ R Y Y & Y & ^ Q ^ ^ ' Y Q Y Q Y Q Q ' ^ ^ W ^ ^ ! ' ^ ^ ( & Q R & R / Y Q E ` 2 3 ",
"m.k.! j e e w t g y y y x y y g y y g p g y g y g i y g y g y g y x y x p x y y y x y y o x p x y y y y x y y g t a t s z E =.4 ",
"2.s.' s p g w d y a d d d d d y d e d e a e a d y e a d e d d d e a d d d d e d y d e d e d e y g d e e h y e d d g p y a Y ;.2.",
"$.q.^ t y f f + a s e e a e e a a e a a s e e e e a e a a a a s a a e a e a e a a a a a a a a a a e a e a e e a O + y p t ) =.;.",
";.q.^ r p d i y a d d d d d a d d d d g d d a d s s h d d d d d d g d d d d d d d d d d d d d d d d y d a d d g y f d g s E 7.l.",
"s.w._ t d O i e e y y e e y e e y y p d y w e e y p p e e p e e y w y p y y y w e p y y y w y t e y e d e e y e p d j e r R y.6.",
"s.8.Q y d t e y g d d f j r B @ h s h h h h h h h h h g h h h h c f c x i x B l B g i h l h B h v C r e d d e y e d s e y W 3.t.",
"s.i.~ d d e d y e e i i f n ^.#X+X#X=X+X+X+X#X+X-X#X-X-X=X#X-X#X%X+X+X>X=X>X#X+X=X-X>X>X=X>X>X=X$X_.F a t i i e y d e e y W 6.p.",
"g.p.W i g s d i g e r i O h oXMXcXcXcXcXcXzXcXcXcXcXcXcXcXcXzXcXmXMXxXzXxXvXmXMXcXxXcXcXzXvXcXcXMX6XC a t w x a y d a e y / 3.c.",
"s.p.~ y a e d y f a e p h d OXvXcXcXcXcXcXmXcXcXcXcXzXmXcXcXzXmXdXvX2X).S.F.].9XcXnXfXcXcXvXhXnXdX6XB d t O d + e d a e y ^ 6.v.",
"f.i.W p d t d y e f d h f y #XmXzXzXzXzXzXzXzXzXzXzXzXzXzXzXzXzXxX#XP   + d j S.eXvXxXzXmXzXaXvXkX5XB d a d e a e d a e g W 4.c.",
"w.5.~ y e s d y r i d w f y OXzXkXzXcXzXzXcXcXzXcXcXcXzXcXbXcXmXyX} r u d d w r Y.zXvXkXzXzXhXzXcX<XB w e d r i i a e d y W 3.c.",
"u.5.~ y d t d e p g e e h h @XxXfXzXzXzXzXzXzXzXvXzXzXzXzXvXzXmX@Xa r c a e e r L iXxXkXzXxXcXxXnX4XA a e e p i e d e e y R 4.b.",
"w.5.~ d y s d e + f a e y i .XMXcXcXcXkXcXkXkXcXbXkXcXkXkXcXcXcX_.s g # y k + f m rXzXkXvXfXhXkXvX,Xc r i f s j d d a y y R 6.b.",
";.q.' y e g a e d t d s y g OXvXkXzXzXmXlXvXnXhXzXzXzXzXcXcXcXcXoXx r f k w j s K rXvXzXaXcXdXzXcX1XB e y d g d y d e e g R 4 c.",
",.>.Q i a a d t d e y a e g @XmXhXMXxXzXaXzXbXlXzXzXkXcXzXcXcXzXsX{ y o o h e r W.kXgXzXkXmXzXmXcX4Xc d a d e a e d a y g R -.p.",
"w.-.Q i q d f e a p d s a g @XcXcXfXxXzXMXcXzXbXzXzXzXzXcXzXzXzXmXOXK w i w d Z.8XnXxXfXzXnXkXkXcX<XB e t d i d e d s d g ) %.p.",
"i.=.Q i a d f q g e d a y g oXmXmXhXmXkXhXzXnXzXmXmXmXzXcXmXcXcXcXnX<XQ.C.F.'.uXxXmXmXzXzXmXcXkXcX4Xc d a d e e d d a a y R 1.6.",
"i.>.Q i q a f e d t y d e g @XmXhXkXsXmXzXmX8X%X@X+X+X+X+X+X@X+XOX$X%X.XOX8XbXzXvXhXmXkXzXzXmXzXmX4XB e t d e d y d a d y R 1 6 ",
"w.>.Q i a a f t d e d a e i oXcXcXmXdXxXvX_.K h g h h g h g g g l a f A f K $XmXzXhXkXhXzXcXzXzXcX4Xc y a d y d y a a d y R 1 < ",
",.,.W i e d y e d i a d a g oXcXmXzXnXxX2XG w w d d d d d d d d f d y i w X K 4XzXcXkXzXmXcXcXxXmX4Xc a s d d d d e s g i W 4 2 ",
",.r.^ e a d d s d t d d e i @XvXhXmXzXaXH.p y @ y y o e a y y d e g 0 i % a u B.iXmXzXxXvXjXhXvXcX<XB y e d i a y O a d y ^ 6.5.",
",.,.W i a s a y y a y t d g .XmXzXxXzX.XB r + d D G H G B i j y g e d O h y o f D.hXzXkXmXxXcXjXvX4Xm i a i + u e d a e y W 6.b.",
"q.,.W y a a d e a d d e d g .XnXmXmXeX} a i w V.tX9X9X8XH.e a g e s e g j r n o v ^.lXvXzXdXxXzXmX<Xm e + e f g y d a d y ~ 6.v.",
"q.5.W p d s d e y y d t d g oXMXhXzX).g j y n OXxXkXzXeXG w w i a f p e a w r t e B {.vXmXmXmXkXzX,XB g f p j e e d d a y W 6.x.",
"q.5.W p d s d e e d d t j g .XMXmX;XV w f o J.aXfXkXcXE.o h g d d e g r y B V e x X G OXhXvXxXzXmX4XV w g e p i y d a a y R 3.v.",
"<.,.W i y e d d y a y t f g .XmXvXJ.r g i C 4XbXvXxXtXG a O i O g p d g e L..XC w x w U [.}.{.XX`./.f r d r g d e d a d y R 2.c.",
">.;.W y e a d e i d d t a g .XmX6XD e e r E.mXkXjXvX/.i g a u d e i j p c -XvX[.c f d   f @ y y f V X i h e d + y j e y y R 6.p.",
":.>.W y a a a g e a y e f g .XnXsXV.+ e { 8XvXaXvXeXP g O x y + e a i e D.hXzXkXK.d i i o w x a w y y i j e y f e d a d y R 1.p.",
",.,.~ y d s d e d d d t a g .XnXcX,XH.K.#XfXnXnXxX{.s a f r w f s + r v +XmXkXxXxXC.e d o y o a y o f g d y u e e d e d y R 2.x.",
":.q.Q y a d h q y e d a t g @XmXzXcXcXcXcXzXzXzXuX+.e i y j p y y d w S.xXkXzXkXmX1X!.| V.V.B.V.S.N.r i a f a d e d a d y / 1.8.",
";.0.' y e d d e d i d a d g oXcXcXcXcXcXcXzXcXmX#XB e d g h e y a d F oXzXkXvXcXxXMXbXsXjXjXuXaXjXoXD w e a p t e d q g y W 1.2.",
"q.q.Q p a a f e a i e a y g oXmXzXkXcXzXcXzXmXzX`.e e d e y i j a e P kXkXzXzXxXaXcXcXhXbXvXvXMXMX:XV a a d t w e h e d y R 1.1.",
"q.r.^ e e g h q d e g a a g oXvXzXbXzXzXkXcXmXcX^.i o f w e g s d e S 4XmXbXhXnXMXmXzXzXbXhXzXaXzX<XB e g o d f e d e d y W 2.1.",
":.q.' p s a h e d t d a d g oXmXzXcXcXkXkXzXcXcXP.t e f r S h e f r h L.xXvXhXcXzXzXnXvXzXmXcXkXMX8Xc w t + f f e a e g y Q 6.1.",
":.>.Q e a d d e e i d a y g oXcXzXzXzXzXzXzXzXcXL.q f d r H.{ w f u e S 3XmXjXcXkXkXkXkXhXhXcXcXzX<Xc e i y y e e d a d O Y t.-.",
":.0.Q p e a d e d e y a a g @XmXcXcXcXcXkXzXkXzXF.w f i r '.~.g a p f d P.hXcXcXcXhXhXcXvXvXxXxXmX<XF d e a t i t d e d e R x.%.",
",.r.' y a d h t y i d a e g oXmXzXzXcXcXzXzXzXzXC.e f u e  XuXD a w d f B 9XcXnXzXvXzXzXbXzXzXmXmX,Xc y e d e d e d a d d R x.-.",
"q.>.Q y y d d e d e d % r g @XzXcXzXzXzXzXmXvXdXB.p d d i .XcX'.d e O g p P.mXzXzXzXzXxXMXhXkXzXcX4XB i a d e d s g d e g & b.2.",
":.>.Q y y g h y p e n u r x |.vXcXkXzXbXkXzXkXiX} d d j d oXmX1XL w g + o K 1XMXmXhXzXzXzXaXmXzXcX<Xc a e d i y e d d e y & p.2.",
"0.>.Q y e a d e y O y . f V >XxXmXcXmXmXmXvXbXsXL d d a g =XvXmX/.w u + O r Y.vXmXhXkXcXvXzXmXzXcX4Xc d s d d a e g d a e ~ 2.2.",
"q.q.W y a a f w + r i G.{.XX@X2X,X:X,X<X,X4X:X;XV e d d c >XzXvX9XJ w h d r G 1XMXhXkXkXmXvXzXcXcX4Xc d a d i e q h d y e ^ 1.v.",
"0.>.Q p d a d g e  .{.'.V.M c f B c c B B B c c f e g i h 4XmXzXnX^.e i y e O Y.vXzXbXhXzXvXhXkXcX4Xc g t d d d e g e a e Q 2 b.",
"q.5.Q y y a d e p ].T.h f . h i y e p y y y y e y e g w l 3XmXzXnX5XL w y j d S 6XmXvXxXzXzXcXcXmX<Xc a a d y a e d d g p R < 2.",
"w.r.Q N a a d e A.{.f u e f a y d d d d d d d y p d e e L tXhXmXvXzX/.a d f g e Q.rXMXvXzXcXzXcXcX4Xc d e d y a q f y a p Y < &.",
"q.>.^ i d a d d {.Z.y X g w o o w e e y w w e e w j o h K.zXzXzXkXxXeXG y i w d J 7XnXzXhXcXnXzXcX4Xc y a d y e e x a e g Q %.3 ",
"q.>.! x e a i F :X[.T.U.I.U.W.U.E.I.I.E.I.E.E.I.Y.I./..XeXmXcXzXzXxXnX^.e d f w e /.vXzXzXzXjXzXcX4Xc d e d d d y d a d y R 1.;.",
"q.,.Q x s a e h G.H.J.L.D.J.3XmXzXmXcXvXcXmXzXmXmXvXmXnXmXzXzXzXcXxXzXwXG e s f w Z 4XvXmXzXzXvXcX5XB e s d i a d a e d y R 1.4.",
"q.,.E y d d y d 0 u d d o y @XnXzXkXzXdXzXdXzXzXpXxXxXzXzXzXbXnXjXzXmXvX!.e p O k e ^.cXaXcXzXhXmX<Xc y e d y d y d a a y W 3.t.",
"0.,.! p t d y e u i e e i u %XzXxXzXmXmXmXmXzXmXcXcXkXkXcXcXkXhXhXxXmXfX9XH w f e f J eXsXmXnXkXcX4Xc a s d e e e d a g y W 2.8.",
"q.,.! y y j y a @ f f a h h @XvXzXzXxXzXmXzXzXzXhXkXzXzXzXzXzXvXcXmXdXkXmX^.X b e f O Q.MXdXxXzXcX4Xc d t d y d y d a d p R 1.4.",
"q.r.' y e a y g O r i e y x @XmXkXcXkXkXkXkXcXkXvXzXvXzXzXcXcXcXvXzXzXhXmXqX}   u i r J eXvXzXxXcX4Xc a a d t d e a a d d R 1.;.",
"q.,.! y p a a d d i g a d h @XcXmXzXcXzXzXzXmXzXmXzXzXhXhXcXkXhXzXkXmXaXmXmX.X{ o w w + ^.kXkXzXmX<Xm d y d d y e d e e g ^ 4.2.",
"q.,.! g i a e a a e d d a i OXcXxXzXmXzXzXxXzXzXzXzXcXmXzXvXzXvXmXcXhXnXxXhXnX%XQ.H.L.J.^.dXvXkXcX4XB e t d d a y f O y y ~ 1.1.",
"5.0.' r a f r i q t t e e l |.vXcXdXzXzXdXcXcXzXfXzXzXhXfXcXzXfXhXvXfXfXxXfXyX,X<X>X4X6XiXvXaXcXnX2XV i w f a e t r + y u ! >.2.",
"2.e.! q d f e y @ f w i p I &XMXmXcXbXmXbXbXmXcXbXbXmXcXlXbXbXbXvXhXlXmXlX$XM.v C M A I.jXmXbXxXmX{.C y y + a d d e @ d t _ e.l.",
";.u.Q r p h a j u g g   G {.cXzXxXfXvXzXzXfXcXfXzXfXfXfXzXxXzXvXkXmXxXzXOXG e i w d L.eXbXiXzXvX*X+.a t a a a t d y f p r W ,.9.",
"5.g.Q d y d e a e o + Z _.cXmXcXcXhXcXkXcXkXcXkXkXkXkXcXcXkXkXcXzXnXfXXXF r t w u E.yXxXmXMXzX2X} + w e d d d e d e x y a ! r.9.",
"4.h.* j e e t t t t c (.rX9X9X9X0X9X0X9X0X0XuXqX9X0X0X0X0X0XqX0X9X0X`.V d $ $ j G.4XiXrX9XqXOXL + y y y y d g y q e t a % _ ;.l.",
"<.u.` W Q Y W Q ^ ) Z ] o.] @.o.X.] X.] | ] X.' ] ] ] ] X.X.X.X.o.X.T ' ) Z ~ E ] | ..o...o.o.* W [ ^ ' W W ! R ^ W Q R E ` =.2.",
"t.i.w.q.q.0.0.9 7.- t.4.t.t.e.t.q.>.>.5 >.7 >.5 : , =.:.>.r.i.r.u.>.5.- > <.#.> :.g.g.0.k.j.=.t.5.5.t.x.6.8.6.4.z.t.>.>.>.>.-.3.",
"5.,.a.5.2.&.2 2 =.4 7.6 p.t.t.i.6.-.-.3 1.2 1.< = 1 -.4 1.6.x.6.;.f.=.> 3 8 4 <.4.v.s.p.n.b.i.u.f.t.v.c.5.i.f.2.x.9.&.*.l.*.&.*."
};
