/* XPM */
static char *bed20b3a5ba24c8390edc0d8393cd356qJpjRR11dodEBWw3[] = {
/* columns rows colors chars-per-pixel */
"64 64 46 1 ",
"  c #6C3C0E",
". c #7A4A1C",
"X c #865628",
"o c #916133",
"O c #976A3D",
"+ c #9A6C3D",
"@ c #9E703F",
"# c #976E41",
"$ c #9B6F42",
"% c #9D7244",
"& c #9E7549",
"* c #A27445",
"= c #A67847",
"- c #A3764A",
"; c #A57A4D",
": c #AA7C4D",
"> c #A67D51",
", c #AA7E52",
"< c #AE804F",
"1 c #A58153",
"2 c #AC8255",
"3 c #AE855A",
"4 c #AE895D",
"5 c #B28454",
"6 c #B68857",
"7 c #B2865A",
"8 c #B48A5D",
"9 c #B98C5D",
"0 c #BD905F",
"q c #AF8A60",
"w c #B58C61",
"e c #B98E62",
"r c #B59264",
"t c #BB9265",
"y c #BD9569",
"u c #BD9A6D",
"i c #C29463",
"p c #C69866",
"a c #C0966B",
"s c #C29A6E",
"d c #C89A6C",
"f c #C49D71",
"g c #C89F73",
"h c #C4A173",
"j c #CAA175",
"k c #C8A678",
/* pixels */
"uuhts87225557689w287e9e2-&$$%eeeyt3w>731wyttqttytwwd-,:-665555::",
"huuygw7722577889e587ewe5*%$$%e9tyt3w1873wyttqytyteed::*:565555::",
"kuurgw5352576889e273e8e2-&$$%t9tyw3w,733wytt8ttteead,**,,6655<5:",
"hhhrsw2:22,57689e787e9e1-&#$*tweyt38>737watyqtttiwia9$*,5667<5:5",
"4uuru87:22257886e587e8e,;-$$&tweur38>33wqattqytteeiiw-*,:555<<55",
"1qurar8252<26688e282e9e,;&#%&t9tyt38>3338attqytwiw6a,,:i:555:<56",
"44rus83522256668e277e8e2;-%$-tetye8w>3238attqdywew,a,,,,=<5<=:69",
"urruj3;252:278968282e9e,>-%%*ye9yeww>333qateqsyei7wd;,99*<5:=:5i",
"urqyfw>-,5255766e:838ee2,&$%-yeea87,&w333uyy,jeeee7e5:55*::X=55i",
"urqry7::,22578888,858we,,&$%$eeiuq7>-w73wayyqgqtee7e5:95*:*.*59i",
"urwry7272,,57999e;w38ee,,-$&-eeeuw3&,q33wfeywu,re7ee5:95*5+ +6ii",
"uuwrt828,,:578998,8579e,,-%%%eeeyw3&q3327feyyw>yieei5595*5+ o6ii",
"rrrrt3,7<;:268899>878w8,,-%%%teeet3;w33,7fttt3;yieei55i5@5=.@9ii",
"rrrry3,521:589998;w58w9,>-&%$teettq,w3q,3atyr,,teeee55i5*5:o=66i",
"rrrry3,27::588998,87799>,--$$eewtt,q2,q23ueyt,qteeee5:6:=::**56i",
"qq4rt5;,7;;586688,877e8>;;&%$tewyt,w>,w,8teyy3ewdeee5:5*:=::=59d",
"4q43r3128;162600r14488t1>>&##ryyee3q-77,3aaaeqqeeeee,--$-,5:-55d",
"444102526;:5570601470rt1>>&#&yryee,--3333aaaeq7eeeee---$-,95:55i",
"44q492726;<17684r384wwt>>>&##yyyae,$-q7,3aaaaq7eee7e,+$$-:e5:::i",
"r1r48287<1%<49048147w8t>>>&#&ryyea,$7qqq3aaaeq37aeee,o--7-75:::9",
"r1q473e8511<6rrrw383w9w>3&&#&yeyeaq-ew7,7aaaa7,qee7e,-,ei:55:5::",
"w34373ee45=<6666r288wwr>>>&&&yyyeeq,eq,,qeaaaq3qae7e7-eei:65:5=*",
"q4w2w779<<=14640e2w3wwe>,>&$-yyyeeweq3,,3aaaa7qqee7e77ee:@66:65:",
"4rw3e,,81<1=r66rr233www;,,&&&yyyaewaq3-33eaaaeqqeeeeeea7*+95=5i6",
"4q44e,-5,-,-0106r23qwww&2>&&&yyyaea,,,,,-aaqaaa3eee7eeai+*9555ii",
"4w33w3>,e,*-46r6w,333ww;2>&&&yyyae,-,,,,3aaaaqe3ae7e7iei:=95:5ii",
"8843787:e6:,594rw,,q2ww>4&&&&yytee,-,,q,,aaaaqaqae,e7ded5:i5<56i",
"r4q12893,1574580w,3723w>33&&&yyteea-,,,,,aeqqaqqa77e7e5i5:955<9i",
"44442497**7=9100q,2q,ww>3>&&&uyyyy,>q,,,qaaaewe7e7ee95555=665<6i",
"144435775;7*9204w,,42q3>,>>&&uyyyya>,,,,,aaaewe777a79-:::=666<5i",
"144482;7e77=7583w,232w3&2,&&&uyy,sq>,>,>,aaeaee77ee75:5:=+566<6i",
"4r1401&2-,,:;580w,,43w3&3&&&&tytyyy>,,,,,aaaaqe7ee7e5955=+566<5i",
",wqqe,e,,,,,,,y,e,,q,ww%11%@10r0,yw&-,>,,js,ja,aqew,eeee-+:9556i",
"qqq,wi,i,,,y,,yee>,7,88&1<%1@yy0wyq$$>>>>fayfy,qqawyee77--:95559",
"qq,q,e,ae,,,,we,e>>,,78%1<@@1000yy,&&,&&&afsfa,y,ee,ee7,,-595<55",
"qrw,e,,,6,,w,qeee>;,;33%;<1%%0y0wyq$#,>&&sfssa,qyyeae7,,::,95565",
",rqqe,,,,6,i,at,e>>>;23%;2*%@009803##,&&,jffaff,qewee,,7:<<65<96",
",q,q,,-,,,,6iayyy>>>&37%1<*%10u08t7-&3&>,fj,yfs,qewwee,7<5<6<<i5",
",qqqe,-;=,,iee,ya,>,-24%12%%10r0rtw1,3>>>sfyyfs,eewwe7,7<6<5<<9<",
"rr,q,>$:*,,,ayeyy,,,;26%=<%%%0y8r9w13,&>>ajyyfg,wewwe,,756=<<=i5",
",rqrq,,y-,,9ieiy,,,y,,,,&1%%10r09921:=&&2ysuase,ee,e9,,,i5:=6@i9",
"q,q,q,,y:,69eea,a,,,,,,>=;@%%0008r3;1;&&3usyase,,eee9,7796:=5=i5",
"q,qqy,,y,,,eeaeaa,,,,y,,%;@%@908r82;1;&;3asyasy,eaee9,7759:*<<69",
"qqqq,,>,,,,,eaeey,,,,,,>&1##%908082;11&;1isyastweeea7,7959+*<56p",
"qq,,y,,,-,,,yayag,,y,,a>&;@%%89er92;1=&;>tsyaft,eeee7,9e96+==::p",
"qqyy,,>,-,,e,aq,s,,,,,,&&;%@%899r81;1;&&>tsyaftqaaa,6,9996+@@==6",
"qq,f,,>,-,,aaa,aa,,,,,,>#-@@%799861;;;&&,ysyaayqaaee96i9:<=@+==:",
"qqy,s,&>,,,,,aaqf,,,,,,&%-#%%6w734;;;;&&2ufrtatweaee96i6+*=@+<<=",
"q,f,e,,+-:57edeet,-,,,i$---O-,eq,,>,,-&-,ffrysyeaaea99ei$,=@:::6",
",yyqi7,$-:57eeeeaw-,,,,$$--O,,wwe,,,,-&->uursfeea,eee99,:i:*::66",
",qq,e,---:57eeeee,-,,,a---$O-,,ye,,->-&->uuryfewaeeae9i,:9=$:59i",
"qqu,a:-,*:59eeeea,>,,,i-$-$$,,y,yw,---&>,ufqyyttaeeeeei9,9=@:<60",
"qyq,a>,e-,77aeeaa,,,5,e-$-$$-,eewq,&----qhhqyywtaeeieee96i:@:<66",
",qf,,>,a---7eeeee,,,7,e-$-$+-e,iyw,&---->hhryywqa7eae7e96i==<66<",
"yqyq,,,,---7eeeee,9-7,9---*+,,e,tw,&&>&&>uhryyewe,ai9999:9==9666",
"qqy,s,,y::,7eeeee-e:9,9:*-*$,eeery,&&>&>qkhryyyteeee969969=:6666",
"7ea,e59--9-7de7ay,w,,,9:O,;7%tr8tr7-*-;24yurruaw98t067ie69<=6666",
"77e775:++9-7ee7ee,,>,,,-O::7&tt9wt3;---,4uuruuaww90t999969<:6966",
"7e7ee5++o5:5eeeew,,>w,i-O;:7=yy0wt3;--;;1uuuufywteet9ee990::6960",
"7a7ee7-:-5:5ee7e,>,-,e,:+-,8:yywwr7-----1uuuuutwtwee99e990<:6660",
"7a7775-55,,,ae7ei,,-,9,-$*,,2tywwa,--;;->yursswwaeet000669<:6666",
"7eq77:-e7-,5ae7aa,,>,,9-$*,72et9wa,--;,>>uurfaqete0i00i,ii<<0666",
"qea775577-7,ae7ae,,,7,9-$:,,5etwqe,--,,,3uurff8etwtt90i6906:66<6",
"eqaqe55-5-e,eeeee,9,7,,-*:,67eaewe,*-,,>quyrgfwtt0tp0006i0<<06<6"
};
