/* XPM */
static char *cedcca3f49fd4944e330bfb168a95e9fC7zZsx1j0X4PI4bb[] = {
/* columns rows colors chars-per-pixel */
"64 64 256 2 ",
"   c #0D0D0D",
".  c #130E0D",
"X  c #0B100E",
"o  c #12120D",
"O  c #150F11",
"+  c #0D1414",
"@  c #131313",
"#  c #1C1B1B",
"$  c #191717",
"%  c #0C0F14",
"&  c #261C19",
"*  c #311E17",
"=  c #2D231D",
"-  c #25211D",
";  c #37261D",
":  c #1B1C21",
">  c #2D1E22",
",  c #1D2A25",
"<  c #242322",
"1  c #2C2523",
"2  c #2B2A27",
"3  c #332523",
"4  c #342A24",
"5  c #3C2C24",
"6  c #3B2D29",
"7  c #352A28",
"8  c #3D322B",
"9  c #393528",
"0  c #393534",
"q  c #283332",
"w  c #19211B",
"e  c #4B301D",
"r  c #422D25",
"t  c #432E29",
"y  c #4C2E28",
"u  c #443225",
"i  c #4C3324",
"p  c #44342C",
"a  c #4A352D",
"s  c #453A2D",
"d  c #4C3B2D",
"f  c #4B3B26",
"g  c #523B2D",
"h  c #573729",
"j  c #4C3C33",
"k  c #483934",
"l  c #533D33",
"z  c #593C34",
"x  c #683F30",
"c  c #294836",
"v  c #31583B",
"b  c #4A4438",
"n  c #544234",
"m  c #5C4335",
"M  c #54433B",
"N  c #5A453B",
"B  c #5B4A3B",
"V  c #584A38",
"C  c #554933",
"Z  c #65442E",
"A  c #634334",
"S  c #63463A",
"D  c #644C3D",
"F  c #6B4C3C",
"G  c #684836",
"H  c #744B38",
"J  c #6A533C",
"K  c #79533C",
"L  c #766537",
"P  c #3D3E43",
"I  c #413F42",
"U  c #1E5C42",
"Y  c #365844",
"T  c #067C4D",
"R  c #0A7D55",
"E  c #127E55",
"W  c #197C56",
"Q  c #14764B",
"!  c #257B55",
"~  c #387755",
"^  c #316E4D",
"/  c #3C7E62",
"(  c #5C4C43",
")  c #554745",
"_  c #5B5346",
"`  c #4E504B",
"'  c #644D42",
"]  c #6B4E42",
"[  c #674946",
"{  c #645344",
"}  c #6B5344",
"|  c #6D554A",
" . c #6C5A4C",
".. c #65574A",
"X. c #735444",
"o. c #7C5A45",
"O. c #745B4C",
"+. c #7B5D4B",
"@. c #755747",
"#. c #6A5C53",
"$. c #745D53",
"%. c #785B52",
"&. c #724F44",
"*. c #577C4E",
"=. c #567D53",
"-. c #496E51",
";. c #7D624D",
":. c #75624B",
">. c #7C6354",
",. c #786659",
"<. c #6D6D52",
"1. c #786A65",
"2. c #797565",
"3. c #71766F",
"4. c #557E60",
"5. c #855C46",
"6. c #845F56",
"7. c #86644C",
"8. c #97694A",
"9. c #9B7548",
"0. c #836553",
"q. c #8C6B55",
"w. c #846C5C",
"e. c #886A57",
"r. c #966C56",
"t. c #8A715B",
"y. c #98755C",
"u. c #A67949",
"i. c #A77859",
"p. c #B57A53",
"a. c #856E63",
"s. c #847364",
"d. c #8C7B6D",
"f. c #8A7567",
"g. c #937562",
"h. c #977B68",
"j. c #8B7C73",
"k. c #977D76",
"l. c #A97B63",
"z. c #B47F60",
"x. c #C27A52",
"c. c #08854D",
"v. c #068554",
"b. c #0C8454",
"n. c #0B8A54",
"m. c #0D855A",
"M. c #0D8A5B",
"N. c #058958",
"B. c #138454",
"V. c #1B8353",
"C. c #13845A",
"Z. c #1A845B",
"A. c #138A5C",
"S. c #1B8A5D",
"D. c #148A55",
"F. c #0F8B59",
"G. c #258459",
"H. c #35865A",
"J. c #29804D",
"K. c #1B8A62",
"L. c #148961",
"P. c #148E63",
"I. c #258964",
"U. c #3A8865",
"Y. c #2C9068",
"T. c #4B8756",
"R. c #538554",
"E. c #5A8454",
"W. c #558955",
"Q. c #5C855A",
"!. c #548A5A",
"~. c #5A8A5C",
"^. c #55865A",
"/. c #538E59",
"(. c #6E865B",
"). c #578B63",
"_. c #5B946A",
"`. c #4F9271",
"'. c #678A68",
"]. c #669774",
"[. c #6F9371",
"{. c #69A179",
"}. c #978452",
"|. c #AB834C",
" X c #AD8453",
".X c #AB855B",
"XX c #AC8A5D",
"oX c #A78759",
"OX c #B38554",
"+X c #B48A56",
"@X c #B48A5C",
"#X c #BA8C5B",
"$X c #B7875A",
"%X c #B8925B",
"&X c #B48850",
"*X c #9A826C",
"=X c #8A8578",
"-X c #9A8374",
";X c #978678",
":X c #909074",
">X c #AC8B63",
",X c #A78568",
"<X c #B38C63",
"1X c #BB8D63",
"2X c #B48668",
"3X c #AB9569",
"4X c #B59164",
"5X c #BB9263",
"6X c #B9986A",
"7X c #A68A76",
"8X c #B48C75",
"9X c #AA937D",
"0X c #B89877",
"qX c #B5A372",
"wX c #C29464",
"eX c #C6986A",
"rX c #C49070",
"tX c #C29866",
"yX c #6F7881",
"uX c #867D8E",
"iX c #749688",
"pX c #6CAB90",
"aX c #6DB69A",
"sX c #878885",
"dX c #9B8B83",
"fX c #9B9589",
"gX c #9A9999",
"hX c #8B968E",
"jX c #A99687",
"kX c #B79B87",
"lX c #AA948B",
"zX c #8EA892",
"xX c #B8A898",
"cX c #ACA692",
"vX c #B3B1AA",
"bX c #81BDA4",
"nX c #C6A48A",
"mX c #C7AB97",
"MX c #CEAB92",
"NX c #CABAAA",
"BX c #C29F89",
"VX c #92CCB4",
"CX c #AFCEBD",
"ZX c #D0C5B6",
"AX c #B6B9C0",
"SX c #B4D6C6",
"DX c #B9E3D1",
"FX c #D5D5CE",
"GX c #C8E7D8",
"HX c #D0E4D8",
"JX c #DAE9E4",
"KX c #DBF5E8",
"LX c #F4F4ED",
"PX c #F7F9F6",
"IX c #EBF2EC",
"UX c #E3DED8",
/* pixels */
"eXeXeXeXeX$X#X$XXX6X XOX#X#X@X1X4X@X@X}.4X1X@X.X9.y.9.9.9.<X4X4X0X6X.X<X.XXX.X.X>X5X1X6X<X5X4X6XXXwX#XeX9..Xi.,X7XqX>X$Xx.u.OXu.",
"qXqX3X3X0X3Xl.<.f.h.,X>X X X@X XXXp.#X@X@X#X1X|.9.9.9.9.9.<X1X#X5X1Xi.@X X@Xi. X<X5X1X5X@X5X1XwXrX1X>X6X.Xi.t.w.y.8XqXXXi.oXOXu.",
"eX0X(.~.(.(. .V [ S <.*.E.E.W.)./.E.=.Q.~.E.'.=.*.*.-.T.*.!.!.!.~.~.T.!.R.^.R.R.Q.~./.^.R.~.^.)././.~.:Xg.7.o.g.t.g.jX'.R.(.oXu.",
"eXqX~.V.c.^ C h G x Z G 2.].Y.R M.L.C.b.L.M.m.M.M.M.n.n.N.M.m.m.m.C.M.L.m.M.m.M.m.L.N.M.R L.m.m.c.H.'.:.@.7.g.g.h.e.fX!.J.E.u.p.",
"5XqX).A.v.~ n x F H H H o.:X{.).c.N.A.v.b.m.b.A.N.n.b.C.C.E B.Z.C.C.m.M.v.B.m.C.C.n.m.Z.B.N.b.C.H.(.6.H &.y.l.l.r.e.dX).V.R.oX&X",
"}.3X^.B.b.^ g h S &.K Z n J :XcXT.B.c.n.b.b.b.C.B.B.b.Z.D.B.D.S.B.D.D.B.b.b.B.D.C.n.b.Z.E n.D.H.'.<.F @.w.l.l.l.q.:.=X`.c.R.|.&X",
"+X>X^.b.v.~ d h G K K K H Z J s.[.U.T M.Z.C.R C.A.A.C.E C.m.R b.E Z.C.C.m.m.C.E C.M.M.E b.n.H.=.X.X.5.e.y.2X2Xz.8.5.=XH.D.=.$X#X",
"6X4X'.D.n.~ d i Z H o.K G H A G d.].S.v.W C.C.R m.b.Q Q U c c q Q R C.b.m.m.m.m.R R M.m.N.n.~ ,.G J 0.l.i.i.p.p.5.0.zXB.N.Q.$X%X",
"6X#X!.C.n.Q b e x H K K H H H H F =XiX! D.S.W ! U Y q 2 2 2 < # U I.P.F.P.L.! I.K.I.C.C.S._.<.D 6.r.g.l.l.l.i.i.5.7.[.A.K.R.@X1X",
"qX5X!.C.n.V.b e h H K 8.K K K G D { cXGXCXzX4.0 , , , < < : $ @ iXDXSXDXGXDXDXDXDXDXGXDXZXdXS K e.6.r.l.rXz.p.z.5.6.'.b.C.R.#XwX",
"0X%XW.C.n.V.b i h x K K K K K ] ] h #.=X_ < 1 < < < < : $ %   X vXPXLXPXIXIXPXPXPXPXLXIXNXF J >.q.6.y.z.rXrXz.i.5.e.!.v.C.W.#XeX",
"qX5X!.m.A.D.` i e H 5.5.+.@.K S &.z * 1 q , : , & # @ O O   @   sXPXGXVXpXaXVXJXPXLXLXZX2.h 5.t.r.r.l.l.l.l.z.r.8.g.H.m.M.Q.#XeX",
"6X#X/.m.C.D.-.i h Z X.5.5.+.X.F X.N & @ @ @ O & O % % % + @ @ O sXSX`.T W W W pXJXPXFXg.S X.7.7.r.l.2X8Xz.l.y.r.5.:XH.N.L.R.#XwX",
"3X#X/.R C.D.Y d x x A G F X.X.X.X.' 4 @ + : O $ % $ $ @ @   O   #.iXiXpXiXiXU./ VXCXf.S D @.e.g.y.l.kXrXz.i.r.r.5.[.V.v.m.E.#XeX",
"3X@X/.m.Z.n.~ g h h A F ] X.X.X.X.O.) # + + + @ + @ @ O   O   % , gXAXAXvXAXiXyXY #.[ h G o.5.g.y.8X8X2Xz.l.r.8.r.'.b.b.M.*.+XeX",
">X<X/.m.C.B.~ l h h z z S F ] X.H &.| 6 O @ @ @ @ @ @ O @   X % : yXuXgXuXyXyXP 2 M M n J o.t.e.g.7XrXnXrXz.8.9.*X'.n.C.M.=.@XeX",
"oX>X).C.B.V.~ ) y F Z H o.H K X.| N g p @ $ + o @ @ @ % @ @     O Y 0 q P ` ` 0 t } f n } +.r.g.l.kXBXrX8Xl.5.q.lX).c.M.A.*.OX6X",
"XXXX).C.b.B.! b h F F @.7.0.+.o.] @. .M 1 $ @ o @ O O @ @       2 #.: $ : < 2 1 N ' u n } o.0.t.k.nXMXMXnX2Xy.5.2.G.B.R M.E.&X5X",
"<X.XT.M.b.n.W c g z A ] %.e.e.:.| 0.} B 9   @ @ @ % O %     # 0 uXsX2 : : : 0 9 M j 5 n } >.0.5.0.7XkXMXBX7X-Xl.-.B.B.B.m.E.|.5X",
"5X.X^.M.b.A.D.c z z g h m F X.D D B z n 9 & % @ O   % % @ 0 3.hXvX3.2 < : 1 7 8 p 6 5 l S e.y.q.q.7Xl.8Xg.o.a.xX[.B.B.D.M.W.u.1X",
"4X,X!.C.B.D.W v l t r y i g V G z j ( k * Y : $ : < P ` yXgXgXgXuX` : # 1 1 1 7 3 3 t M D t.*X,XkXBX9X8Xg.@.| xXvXH.b.C.m.E.u. X",
"@XoX!.m.B.B.V.^ j 5 r d m S J o.0.a...0 & #.uXyXyXsXgXgXgXgXhX=X0 % @ < & $ 2 & > 3 p ' } w.*X9XkXMXnXnX7Xa.} dXcXG.b.L.R E.u.9.",
"<XXX^.m.B.A.D.~ ( 8 5 l F X.X.;.e.a.7 $ @ I gXgXgXgXgXgXgX3.` # @ @ # 2 < O 2 1 3 6 a ( :.:.w.*XkXnXmXmX7XO...:X=.B.D.A.b.R.|.u.",
"@X>X).b.D.D.N.~ ..8 ; y ' O.o.0.7.m : % $ $ 0 #.3.3.#.` 0 # % @ o $ 2 0 1 $ : 0 p j k M ..:.w.d.7X9XmXmXg.g B s.G.v.b.E m.~.#XwX",
">XXX!.v.B.V.V.D.! c * 5 j %.} B ' ( & . @ X @ @ $ @ o @ X % @ & & 3 9 k b & 9 9 k j j ' { ,.s.*X*X:X;X9X,.k b ,.).b.C.W N.E.#XeX",
">X@X!.m.D.G.Z.b.G.q 3 & t &.F x a j 3 & # @ @ X @ o $ @ $ # k n = 1 0 k #.n 7 ) b k j ( ' ,.w.f.s.*Xt.,...j ,.=X'.B.B.Z.N.!.%XwX",
">X@XW.C.S.V.C.b.Q q < & 4 h h h u a a 8 7 3 3 < < - 2 1 ; 8 ..O.( p k M ,.#.4 s ) b M |  .s.s.d.f.w.>.,.1.,.=XxXhXG.D.Z.N.W.#XwX",
"XX@XE.Z.Z.D.C.C.^ < & < 6 5 5 p r u j p t k 6 6 8 9 7 4 = j d { { p k ) s.,.( 9 k ) ..1.$.f.d.;XjXd.w.2.s.j.d.jXcXH.B.D.m.W.#XwX",
"XXoX^.K.C.b.A.V.v ; > 3 t 7 7 p u d n l z N t p m j 7 & 3 _ 7 ) | u k j -X .d.b k _ 1.f.,.s.j.;XlXlXh.w.,.s.j.cXxX`.b.A.m.T.OXwX",
"oXoX!.C.B.c.V.~ 9 5 3 3 t t 6 t u l l a l l t j z 5 * . 6 | * 0 | d 4 s d.B 2.,.2 k #.2.s.j.j.dXjXxXjXd.s.,.dXxXmX'.b.C.m.T.OXwX",
"oXXX!.C.n.n.! ^ s t 7 3 3 r 5 y z ) m l l z z | S 4 & O M $.r 5 D p ; B s.} B ;Xk 1 M 2.dX-Xa.k.jXkXcXjXdXs.=XjXxX].b.B.B.T.OXwX",
"<XXX/.m.m.D.^ b g d 5 6 3 ; 9 l l M N n s p N $. .a $ & N 0.m g $.p s b #.:.B vX1.1 8 j.xXj.#.2.9X9XxXkXkXjXs.-XmX{.c.B.Z.T.&XwX",
"oX2X!.N.B.Z.^ h a a p ; 7 8 k k C m N l 9 s {  .%.M . * { o.G X.,.} n {  .f.m kX*X* 3 =XmXk.,.=XkXNXkXjX9XxX;X;XjXhXc.M.L.!.OXwX",
"oX>X).m.B.W ^ d k j a ; 5 a a l m ' &.| B d m 7.O.N * 5 { } F X.%.N n D O.f.@.9X7Xk k f.9Xd.f.cXmXNXNXjXjXxXxXd.fXhXc.m.b.T.&X+X",
".X<X).b.n.D.^ k u d ; 5 a l g m S &.&.] @.J J t.7.A ; t ' ' F 7.0.' ' ] +.>.@.h.t.g u 0.8X8XlXlXNXZXZXkXk.2.j.k.jXhXn.D.m.W.OX+X",
">X<X!.m.D.C.~ b d j 5 p M N m g m @.%.} | :.0.-Xy.>.' ' } F F o.o.@.} } >.:.:.w.t.O. .e.h.h.g.e.f.9X9X;.m #.1.dXcXiXn.D.m.W.OXOX",
"XX>XT.M.B.m.! v a j 5 6 k a p u i n d g b C n ,.0.w.w.0.;.J F [ @.>.S F >.>.;.g.h.e.w.%.V m ;.<. .9 J :Xh.d.1.gXxXiXb.B.m.=.#X@X",
"oX>X^.C.B.n.K.^ a t 3 3 7 = 4 ; B n ; n b ; - n } B D J :.X.S [ @.0.] ] +.>.0.h.}.X.| ' u 9 <.(.{ * ..7X*X=Xj.sXsX`.D.C.M.E.wX X",
"oX<X).R B.v.A.^ j 6 3 3 = 4 p n O. .i C b = - V :.g 9 u  .%.A n D @.} } +.+.g.8Xw.A ;.:.C s ..:.9 n t.*Xg.d.dX2.3.~ c.B.N.E.wXu.",
">X2X).L.b.N.P.! b 4 2 1 < 5 d z @.e.h d C b u V V C 4 & z ,.D i ' B ' } >.6.h.9X{ e :.L L {  .n 4 ..t.>.w.d.fXsXsX`.b.D.N.*.eX X",
">X>X~.C.m.b.D.B.U = < & 7 9 3 j G w.0.g f V D V H f w o ; o.@.u m D } D :.>.,X,Xk = p ( D V s 5 S w...{ ,.-XlXNXcXU.D.b.B.-.qX&X",
",X.X^.L.m.n.C.C.^ 9 ; 7 4 s t 5 i D ,. .j u f C ; = $ o ; } @.g ' S { D ;.e.t.y.8 ; r ; * r n B B n n $.f.dXxXZXvXY.b.b.D.=.5X&X",
".X@XQ.L.B.B.Z.b.G.V f b s d d r 5 a j ( #.{ u u = 7 3 < - n } z S A J J :.t.q.0.j m @.H &.| } J B ..%.>.d.lXNXZXvXI.n.B.C.!.+X+X",
">X.X^.L.B.b.C.m.A.V F Z n a z j p n M s f { >.J | | ..k = 0 } F S F X.+.7.h.t.o.8 } ,Xy.e.| D G J } >.f.;XkXMXZXxXA.N.B.m.~.&XwX",
",X.XQ.K.C.B.C.b.T <.| H h s N M j 5 r l n m ' X.;.+.@.5 & - n z A X.o.e.q.*Xd.] 1 { ,Xe.X.z D :.:.:.>.7XxXlXjXNXhXM.m.B.b.^.u.eX",
">X@X~.K.C.D.C.m.K.bX..} G f k z a M j a n D ' O.X.K S = $ & k l x @.K t.y.*Xh.D # j >.X.S D { } | D ,.jX9X-XjXfX).m.m.E v.R.9.%X",
">X@X'.K.Z.B.B.b.pXVX-._ &.g ; j a r k M M M N N N N 6 # @ < t i F K o.y.h.*X-X .2 8 #.$.} J D ] +.s.d.h.,XdX[.H.B.M.B.b.N.=.u.|.",
">X>X~.K.Z.D.C.m.VXpXW v A f r 6 t j a p j a p N M M 1 : $ 7 r i A G o.y.y.*Xh.,.` 7 ) $.:.} J O.( 2.-X7X7X=XT.b.c.L.Z.c.M.R.|.u.",
">X.XQ.K.S.V.B.Y.GXbXbXiX_ h l d j k a a k B l ) ' p 1 & 7 8 * t m G o.r.h.-Xs.{ ,.) M  .:.} >.{ { 5.k.;X[.T.E R A.m.b.C.m.R.|.+X",
">X.XQ.K.S.V.b.S.aXaXaXaX=.[ o.C N d r r s B l l z t 7 7 p s 3 5 g Z K 7.h.jXj.| f.$.{ O.>.o.w.t.,.-X'.).J.V.m.Z.C.B.b.b.m.R.OX+X",
">XXX=.Z.S.G.b.Z.v.N.b.M.Q ` G $.| D S l l S M j t 5 k l l d ; ; g Z H L g.jXk.1.a.a.,.$.J ;.g.f.vXZXH.B.c.N.b.S.C.C.B.m.L.R.OX1X",
">XXXE.m.A.G.A.R M.N.E v.S.-.[ '  .} } ] N N n a 3 t k l z g ; 3 a A G H 7.-XdXj.f.f.s.f.} w.jXmXUXJXS.b.A.S.b.S.Z.Z.B.C.C.W.#X%X",
">X>XQ.b.C.G.A.B.! A.Z.C.c.V.[.) ) n ' $.O.( d 5 7 k k a z d 5 7 6 j A G } s.k.k.7Xk.d.k.1.j.dXvXPXGXP.A.A.Z.E K.I.Z.B.E m.R.OX+X",
">XXXQ.m.D.S.C.C.B.N.A.m.b.P.SXvX1.#.b ) #.| N ; 3 8 t p B N ; * 3 6 s n M ..1.1.7XdX1...) #.;XUXPXGXY.v.b.B.C.C.Z.Z.B.b.m.T.OXOX",
"2XXXQ.C.D.V.B.Z.Z.v.M.b.Z.K.CXPXUXFXvXfX1.) j k 7 5 t l m S m r > ; u l l z O.f.kXw.( [ ,.j.gXIXPXHXK.v.b.A.A.B.Z.Z.B.m.M.!.$X$X",
"<XXXQ.L.A.V.b.b.E S.v.A.Z.N.SXPXPXPXPXLXFX2.N N N M N S A @.0.X.p t d [ D D t.0XnXg.w.j.d.lXZXLXPXJXI.C.C.B.b.b.Z.C.B.m.M.W.OXOX",
"XX>X).c.C.Z.B.B.c.N.b.n.b.K.SXPXPXLXPXIXPXCX_ b i a d g [ 5.5.i.7.h k ) ) +.8XnX0Xr.X.( | lXUXIXPXGXI.N.R C.B.b.b.b.Z.m.n.^..X@X",
"OX>X~.c.C.! C.B.W Z.v.M.m.Y.DXPXPXPXPXPXPXIXgX) ) ) { | &.5.8.i.,Xe.a > ( ,XMXrX8Xf.a.a.uXvXLXPXPXCXI.m.b.Z.B.C.C.C.! C.D.Q.$X#X",
" X3XT.N.A.Z.Z.B.M.A.A.v.Y.CXPXPXPXLXPXPXLXLXUXfXN l ( [ o.>.6.e.h.dX{ k ,.l.8X,X8Xg.$.$.lXFXPXPXSX`.B.b.n.B.b.n.Z.S.K.M.n.W.XX+X",
"+X0X^.A.C.Z.Z.D.n.R W U.VXPXPXPXIXPXIXIXPXIXPXIXvX1._ $.%.%.,.a.g.h.$.$.-Xh.d.7X;Xj.2.=XFXPXPXHX`.m.v.m.b.Z.C.b.Z.C.K.L.B.Q.@X%X",
"OX3XQ.G.B.B.n.n.b.M.Z.VXKXJXJXJXJXJXKXJXKXJXIXJXJXvXsXa.g.g.>.g.h.f.,.$.f.k.lXcXxXdXxXAXGXGXSX`.P.m.M.M.m.C.C.m.B.n.A.A.! <.XX%X",
"XX3X(.R.T.^.Q.Q.~.T.H._.]._.{.].{._.]._.].`.].).`._.].<.2.-X-Xf.h.g.-X;XdXlXxXxX{._.].].pX{.{.3./._.~.).~.W.R.E.Q.Q.W.R.E.(.oX&X",
"1X<X>X>X>X$X$X2X$X9.@X@X1X1X2X1X<Xi..X.X.Xi.@Xu.9.9.i.oX,X*Xf.-XjXjXlXkXkXkXl.g.*XqXqX3XqX3XoX1X4X#X5XwX#X%X#XOX1X1X XoXoX&X+X#X",
"$XXX6X@X@X|.u.u.u.p.#Xi.1XwX<X4X$X@X Xu.+Xu.OXu.8.u.OX X X5X5Xi.-X9Xj.k.l.,X2Xi.p.eXeX5XeXeX#X3X6X1XeXeX4X4X5X+XwX%X&X|.#X&X|.&X"
};
