/* XPM */
static char *a45db887cf33452df75247c2506b01fcJwmdoRTssXPxJE06[] = {
/* columns rows colors chars-per-pixel */
"64 64 251 2 ",
"   c #0D0D0D",
".  c #130E0B",
"X  c #13120E",
"o  c #0D1114",
"O  c #131313",
"+  c #1C1916",
"@  c #14161A",
"#  c #1C1C1C",
"$  c #181717",
"%  c #0D0F10",
"&  c #241D1B",
"*  c #2A1F1B",
"=  c #261915",
"-  c #311E16",
";  c #2D231D",
":  c #25211C",
">  c #33241D",
",  c #39281D",
"<  c #1A1D21",
"1  c #281F23",
"2  c #242322",
"3  c #2B2522",
"4  c #2B2825",
"5  c #2A2A2B",
"6  c #332523",
"7  c #342A24",
"8  c #3C2B24",
"9  c #342C2A",
"0  c #3B2D29",
"q  c #372726",
"w  c #3D322B",
"e  c #3A312A",
"r  c #393534",
"t  c #2C2F34",
"y  c #1E221B",
"u  c #4A301D",
"i  c #432D25",
"p  c #432F29",
"a  c #4D2F24",
"s  c #443225",
"d  c #44342C",
"f  c #4A362C",
"g  c #45392D",
"h  c #4C3A2D",
"j  c #4C3625",
"k  c #533C2D",
"l  c #573828",
"z  c #443633",
"x  c #4A3631",
"c  c #4C3B33",
"v  c #473C37",
"b  c #523D33",
"n  c #5A3E34",
"m  c #623E2C",
"M  c #6C3D11",
"N  c #3E413A",
"B  c #5B442E",
"V  c #4C423A",
"C  c #544235",
"Z  c #5C4335",
"A  c #54433A",
"S  c #5A443A",
"D  c #5C4A3B",
"F  c #594937",
"G  c #5F5139",
"H  c #65452E",
"J  c #634434",
"K  c #644A36",
"L  c #6B4B36",
"P  c #63463A",
"I  c #644B3C",
"U  c #6B4C3C",
"Y  c #6A4634",
"T  c #734D39",
"R  c #6C523D",
"E  c #695239",
"W  c #73533D",
"Q  c #7A553B",
"!  c #7E4F21",
"~  c #745022",
"^  c #3D3E43",
"/  c #474545",
"(  c #5C4C43",
")  c #574946",
"_  c #595450",
"`  c #644D42",
"'  c #6B4E42",
"]  c #674946",
"[  c #724F43",
"{  c #655244",
"}  c #6B5344",
"|  c #65544C",
" . c #6D554A",
".. c #6C5A4C",
"X. c #6A5948",
"o. c #735544",
"O. c #7B5B45",
"+. c #72564A",
"@. c #745B4B",
"#. c #7B5C4B",
"$. c #775744",
"%. c #6C5C51",
"&. c #645A57",
"*. c #745D52",
"=. c #765851",
"-. c #75614C",
";. c #7C624D",
":. c #796144",
">. c #746255",
",. c #7C6454",
"<. c #7D6A5C",
"1. c #796559",
"2. c #6E6752",
"3. c #7A6B64",
"4. c #797978",
"5. c #696C6E",
"6. c #84593A",
"7. c #9B6C3D",
"8. c #976939",
"9. c #9C713F",
"0. c #8C6238",
"q. c #A5763F",
"w. c #A06D3E",
"e. c #835C4B",
"r. c #855C45",
"t. c #83634C",
"y. c #89674A",
"u. c #9B6E43",
"i. c #95694A",
"p. c #9D7244",
"a. c #9D734A",
"s. c #9B744D",
"d. c #826553",
"f. c #8D6B54",
"g. c #836C5B",
"h. c #8B6C5C",
"j. c #866855",
"k. c #936C53",
"l. c #986D56",
"z. c #8C725D",
"x. c #897159",
"c. c #9B7454",
"v. c #95725D",
"b. c #9B755C",
"n. c #997858",
"m. c #8F714F",
"M. c #A37344",
"N. c #A57846",
"B. c #A3764A",
"V. c #A67A4C",
"C. c #AB7C4C",
"Z. c #AA7845",
"A. c #B17E4B",
"S. c #A57D52",
"D. c #AB7E52",
"F. c #A7785B",
"G. c #A9754E",
"H. c #846E63",
"J. c #847263",
"K. c #8B7463",
"L. c #8D7B6D",
"P. c #87766A",
"I. c #957561",
"U. c #947A64",
"Y. c #937C6B",
"T. c #997B67",
"R. c #8C7C73",
"E. c #867671",
"W. c #957D74",
"Q. c #A77D63",
"!. c #AD814D",
"~. c #B2824D",
"^. c #B9814E",
"/. c #AC8254",
"(. c #AD845B",
"). c #AE895C",
"_. c #A68358",
"`. c #B38454",
"'. c #B58956",
"]. c #B2865B",
"[. c #B48A5D",
"{. c #BA8C5C",
"}. c #BA8956",
"|. c #BA915D",
" X c #9C816B",
".X c #97826B",
"XX c #8B8177",
"oX c #958274",
"OX c #9B8372",
"+X c #98867B",
"@X c #A48363",
"#X c #AC8563",
"$X c #AD8A63",
"%X c #A4846C",
"&X c #AD8C6B",
"*X c #A8876C",
"=X c #B28564",
"-X c #B48C62",
";X c #BA8E62",
":X c #B38E6A",
">X c #B7896B",
",X c #B69164",
"<X c #BC9264",
"1X c #B5936B",
"2X c #BC946A",
"3X c #BD9A6C",
"4X c #BA9966",
"5X c #A48A74",
"6X c #A38B7C",
"7X c #A98A75",
"8X c #B58D74",
"9X c #AC927B",
"0X c #A7927B",
"qX c #B79678",
"wX c #AD946C",
"eX c #A1936D",
"rX c #C28B59",
"tX c #C1925E",
"yX c #C29463",
"uX c #C1956A",
"iX c #C29A6C",
"pX c #CC9B6D",
"aX c #C39975",
"sX c #C18E6B",
"dX c #C7A274",
"fX c #C5A06C",
"gX c #777E8E",
"hX c #7E828E",
"jX c #888786",
"kX c #9A8982",
"lX c #9D9C9C",
"zX c #979595",
"xX c #9D938A",
"cX c #A48D81",
"vX c #A99586",
"bX c #B69C87",
"nX c #A89B93",
"mX c #BCA38B",
"MX c #B8A596",
"NX c #888CA1",
"BX c #B9ABA1",
"VX c #B1AAAB",
"CX c #C49D86",
"ZX c #C5A388",
"AX c #C4AA98",
"SX c #CEAE96",
"DX c #C8B6A5",
"FX c #CDBEB0",
"GX c #D7C7B8",
"HX c #BBB3C0",
"JX c #C0B6C1",
/* pixels */
"3X3XaX4XyX'.4X@X*X1X).~.`.;X].-X[.[.[./.4X-X;X].p.a.p.u.u.{.{.tX2X<X].-X/.-X/.S.[.<X;X2X].2X<XiX;XsX{.pXB.@XQ.*X7XbX&X!.^.D.D.A.",
"dX3X3X<XdX-XF.y.z.U.$X;X`.].;X{.[.`.].(.yX;X-X/.p.M.u.u.p.<X-X4X2X;X).].S.].(.).-XuX<X1X).2X;X<X;X;X<XaX(.b.k.z.v.7XaX`.~.`.D.Z.",
"dX3X4X,XdX-XO.K D E O.s.$X].'.rX{.].{./.;X;X<XD.N.p.p.u.p.4X[.,X2X<X(.[.V.[./.].-XuX;X4X(.2X<X<XyX-X1X2XQ.r.e.v.v.K.bX].^.`.D.A.",
"dX3XdX,XaXb.H Z P P H E @X1X<X'.<X/.{.`.{.[.;X/.N.p.8.7.p.4X|.<XuX<X(.[.S.(.(.).[.uX2X2X[.4X<X,X{.2X&Xf.O.d.I.v.T.d.qX[.A.`./.~.",
",X4XdX-X2Xn.l b [ T L B #.*XZX1X;X/.].{.<X[.[.D._.a.p.p.p.tX{.tX2X;X(.]./.).(.[.-XuX<X<X].4X-X<X2X#Xy.Y W I.Q.Q.v.*.qXsXA.D.].A.",
"_.-X3X,XiXb.l b Y T Q H B o. XmX3X(.(./.|.{.<X_.s.a.u.p.p.4X[.|.2X4X[.[.S.(./.(.-X2X;X2X[.3X2X1X*Xr.H $.h.Q.Q.sXk.#.7X>XA.C.].}.",
"_.-X,X<XaXb.l l Y 6.r.T L l U T.qX-X-XD.{.{.<X/.!.N.s.a.n.1X$X&X[.<X[.-XS./.(./.].iX4X<X-XaX1X@Xe.W $.j.b.Q.>XF.l.e.7XD.A.Z.[.rX",
"4X4X,XiXdXB.l j m T Q 6.T T K H @X$X1X/.[.{.[./.!.p.0.Q ~ X.B C S.].-X-XV.[.(.(.(.iX<X,X[.aX_.y.' } f.Q.F.F.D.D.r.e.CXF.Z.Z.[.sX",
"3X,X-X<XuX(.H a m T T 6.Y Y T n ` T.dX(.'.|.$Xm...V 9 4 4 5 2 # y.$X].(.p.1X$X_.-XiX<XiX(.dXj.U =.h.l.F.F.F.F.G.e.i.sX6.Z.D.rXtX",
"3X,X-X,X4XD.H a m T r.r.r.[ [ [ } R 5XqX_.:.K , ; ; 2 5 2 # $ % m._.!.!.V.[.!./.(.iX<X<X1Xn.I } l.h.l.Q.sX>XF.F.e.i.G.6.M.A.;XyX",
"3X4X-X,X<X(.T u l m 6.r.Q [ [ [ Z k -.%.v 3 2 5 ; 2 < < @ o % O t.1X(.p.B.-X).[.|.iX1XqX%XE ] d.e.l.l.8XsXsX>XF.e.l.G.M 7.=XtXyX",
"3X1X,X;X4X(.Q a M m $.e.r.O.[ U +.C ; + y 2 < < # # @ o o o o X T 8X$Xa.].-X(./.'.iX1XqX;.L @.h.l.l.F.>XQ.>XQ.G.r.Q.i.M 8.rXtXyX",
"4X,X,X,X<X).t.a l Y o.e.e.#.o.U +.b : # $ @ y $ o X % % O O X . E -X_._.|.)./.!./.dX&Xm.K @.e.h.l.T.>X8XQ.Q.F.l.r.>Xw.6.8.rXtXsX",
"-X,X,X4X<X(.y.j m m Y Y T o.o.[ $.I > O O . $ X $ $ O X X X X . j 0XmX9XqX0X0X@X@Xn.f.R K O.j.v.l.Q.CX8XsXF.l.i.r.;XC.0.M.}.{.tX",
",X,X-X,X4X(.k.l l n m U ' o.o.o.$.=.( + $ @ % X % o O O X O     5 lXVXJXHXVXlX4.-.F F k K o.f.v.l.>X8X>XF.F.l.i.l.=XC.M.G.}.}.pX",
",X$X).,X<XS.k.l l l n n J ] [ o.W J ..9 o @ @ O $ O O O % O o   < 5.NXNXhXhX5./ ; ) S h @.,.e.f.I.Q.CXCXaXF.i.G.Q.=XD.C.G.A.A.pX",
").).(.(.<X!._.D a Y m [ $.W E W +.P k d O @ O X O O O X o O %   o / r t ^ _ / r s { j C  .O.h.I.W.8XCXCX8Xb.r.i.sXQ.^.Z.D.'.~.iX",
")./.).).;X/.n.J l [ [ #.e.t.O.$.` +. .F 4 $ % X o X O O O       5 &.< # < 2 9 2 ) ` s C } O.j.k.8XCXCXSXZX8Xb.f.Q.F.yXD.C.`.A.uX",
"[./.).).-X!.(.J f n n [ #.h.h.,. .1.} D e   O $ O % O o X   y t 4.jX5 < < < r w S x i b } e.t.t.e.cXCXSXCX%XT.7Xk.c.<X`.N.!.C.yX",
"4X_.|.).[./.).L n n a x n ' o.K I P Z b e = % O O %   % O r 5.zXVX4.5 < & 2 9 w z 8 8 b I g.v.f.h.7X7X8XI.#.H.AX8XB.'.!.N.C.Z.tX",
",X/.,X$X[.!.,XO.P i i a a k P J Z k ( g ; V < @ y 2 r _ 4.zXlXzXjX/ y y 2 ; 3 9 q q p A E x.%X7XCXCX7X8XH.=.+.nXSX_.`.`.!.!.q.~.",
",X/.).(.[./.[.k.x , p k S Z R #.t.J.&.r : &.jX4.hXjXzXlXlXlXzXjXr @ $ < & + 4 * * > d ( X.<.U.0XCXCXAXAX7XH.+.+XdX/.'.`./.'.Z.M.",
"[./.[._.[.!.'.Q.` i i b ] } $.t.j.g.9 $ o ^ zXlXlXlXlXlXzX4./ # O X y 9 & $ 3 5 6 0 x ` X.,.<..XcXCXAXAX%X@. .+X_.u.}.`.C.}.~.C.",
"[.[.,X_.<X!.).#X*.i , i ' @.O.e.y.S $ @ @ @ ^ &.5.5.&./ t @ o O O $ 5 r 5 + # 0 z v z A { -.x..X6XbXDXCXU.k I oXc.8.}.{.B.'.|.{.",
").).).).-X(.B./.i.u ; 9 b #.[ ` ` ( * X O % O O $ O X O o o O = = 9 9 V g = w 9 v c c ` { >.K.oX.XOX6XvX1.g C <.n.p.rX~./.`.tXyX",
").,X)./.-X(.V./.:XB * 1 p U P D f x 6 & # @ O   O X $ O $ + v C ; ; w V 2.V w / A v c ( { 1.<.z.J.Y.K.g...V 2.oX@XV.rX`./.`.tXyX",
").[.)./.].]./.C.@Xk & & p b k f s f d w q 6 3 1 ; : 5 ; 6 s | -.) d v V <.%., V V V A | %.J.J.Y.P.x.,.2.3.3.XXMXqX(.{.`.(.~.rXyX",
").[.)./.`.].{./.#., & 3 w 8 i d i s k d p x 0 0 e e 9 9 ; c h ( | d v D g.<.( 7 v ) | <.*.P.L.+XcXR.J.g.3.XXXXvXmX).rX`.(.~.}.yX",
"/.,X-X(./.].;X(.J > * 6 w 8 0 d i c Z c n S p d S c q * > ( 8 ) ..s g V XX..L.V r | 3.P.>.P.L.+XvXnXOX<.1.3.XXvXAX(.{.}.[.~.}.yX",
"_.).).)./.`.].s.k , * q 0 8 0 p s k b f b b p b Z 8 * . w | ; w  .h > c .XF 3.2.3 v 2.3.J.L.XX+XcXMXvX.XP.2.+XDXAX#X}.`.[.C.}.|.",
"_.).).'.[._.n.O.x p 6 q 0 8 p d b S A b b b b  .P 8 + + n *.i p I d > F 3.{ { +Xv 4 V P.cXXXJ.XX0XMXmX0XcX3.L.MXBX#X'.[.'.!.'.|.",
").,X_.).|.!.m.L b c 8 q * 8 p x S A S A f s ( =.X.d $ = ( d.n f *.s d V 2.2.G BX3.; r XXMXL.%.4.0XvXmXvXmXvX3.+XBX@X'.[.'.~.}.yX",
"(.-X>X(.'.,Xt.b x d d > 7 d d c Z Z S b w g | ..*.C . > { +.K +.<.] C { ..K.Z bX X* 6 XXAXOX*.XXMXAXbXvXvXMX+XoXnXwXZ.|.[.`.`.4X",
"_.$X#X(.'.).y.f f c d , 8 f f k Z P +. .F h F ;.#.Z - q { +.U $.,.D b I *.K.X.9X6Xf z L.9XU.K.MXAXFXDXvXvXMXMXXXxXqX/.{./.~.^.{.",
").-X$X]./.).k.l f h , 8 h c h C P ' [  .+.R E m.t.P > f ] U Y t.d.] U } @.,.+.U.z.c s <.9X8XcXvXDXGXGXmXoXJ.R.jXzXqX].{./.`.^.'.",
").1X#X).'./.n.J h c 8 i A D C h Z +.+.} X.;.x.@Xv.,.{ ] } K U O.@.o.} } ,.-.#.z.f.#.X.x.U.T.Y.h.P.0X0X,.Z ..3.kXBXqXC.[.[.~.`.'.",
"(.:X_.=X/./.S.W h c > 8 c d s 8 j C h h C V F 2.d.g.g.,.:.W P  .+.#.I U ,.d.,.v..Xx.>.-.F F 2.2.%.e R .X.XE.3.zXVXqXC.'.`.~.rX'.",
"_.$X(.).[.D.s.0.d p 6 6 6 > 8 i I C , C V , y V } I D R ;.o.P ] @.d.' ' ,.#.j.T._.E } I e , 2..X{ - X.eXOXoXXXXX+X&X!.^.D.C.tX/.",
"(.$X$X).[.D.p.i.b 8 q 3 3 7 d b X.@.u F V : : V -.C 8 s  .@.P b U @.' } =.#.I.9Xx.G :.:.B V | 2.e V z..XK.XX+X4.E.#XA.'.!.C.tX/.",
":X,X).).].V.u.N.D 8 6 4 3 e h Z +.g.l h F C s F G C e = A 1.I j I I ` +.,.#.T.9XX.j :.:.E G ..k , X.<.<.g.L.xXXXkX$XZ.~.!.C.tX/.",
"(.$X-X-X-X/.D.[.E , = & 7 w 0 v K f.,.l j F G G L j y X , O.+.s D I { I @.;.@X%Xg > z ( I F g 8 D g.I } g.oXnXVXDX(.C.Z.].M.yX{.",
"(.).$X].[.`./.[.;.u 7 e 8 g x q j I <...C 8 B j , ; $ X > X.+.b P P } I -.x.I.v.w , i > - 8 h { F F D -.P.cXBXFXDX1XZ.Z.D.Z.|.`.",
"#X$X).(.[.(.`.{.n.B k V s c f 0 s z c ( 2.I 8 8 , 7 6 1 & F } m I Z R R ;.z.f.j.b S $.T [  .} E { } @.>.L.nXDXGXSX1Xq.Z.`.!.}.}.",
"(.$X).-X-X/.D./.S.Q K K h k k b d c A c g { 2.:.|  .| z ; r { Y J U +.#.t.T.h.#.w { @Xn.h. .I E X.I >.x.+XvXDXGXAX4X8.Z.!.~.}.yX",
"(.).$X].].D.B.N.B.y.H R k a Z C c 8 p b C S U  .t.#.+.0 # ; b m m +.$.f.h. XU.' 3 { @Xy.o.n I -.@.-.1.6XMXvXbXDXZX[.8.M.N.!.!.yX",
"#X-X-X;X<X/.V.V.M.B.Q E I f c C c S c f C I U +.$.T P > $ < x b m $.$.f.v. XY.I # c 1.+.K ` ` R X.E ,.cX0X%XbXqX4X[.7.M.7.q.q.{.",
"$X-X-X1X<X(.S.C.9.(.m.L } b i g d i c b b S D D P S 0 & O 1 i j ' o.r.b.T. XOX..3 w %.*.} E I  .*.J.L.oX.X5X8X&XD.C.N.p.7.q.q.C.",
"$X-X].-X-XD.B.V.p.V._.W n c i 8 i c z f v z p S A V 3 < @ 9 8 j J Y O.b.n..XL.>./ r ) *.-.o.I =.P J.OX6X5X8X:X;X8.N.C.u.w.A.A.D.",
"$X).2X].-X].`.7.B.N.[.i.H C C C v d z c c b n S ` z 3 & 9 w > p Z K O.f.T.5XP.{ 1.V V %.,.} -.X.| >.U.&X:X-X;X].7.`.M.w.C.C.`.`.",
").].,X].;X`.D.7.p.C.`.F.y.I I I ` h s i f A C F b p 9 q w h > i l H Q f.T.cXR.| P.1.{ X.,.#.x.g.g.z.%X&X;X;X[.].!.{.C.M.C.!.^.'.",
").).-X(.uX`.G.M.u.C.`.;X@XW I @.R P K h C D A g p 8 x b b k , , k J T 6.T.cXkX1.H.J.1.@. .-.z.U.@X$X,X2XtX{.{.{./.{.Z.9.C.`.{.|.",
"].-X].(.uXD.M.D.B.V.^.{.-Xk.F { @. . .{ D S V d q 8 c b b d , q f Z L T t.W.kXE.h.H.Y.P.@.g.0X&X4X<X<X<X|.{.|.{./.{.N.9.C.~.{.tX",
"$X-X-X(.<XB.B.[.S.M.D.{.iX:XO.I D A ( @...] c f 9 z x c n h q q 0 b F K } H.W.XXvXoXY.P.>.E.vX%X<X{.<X<X{.;X<X<X[.yXC.M.C.~.`.`.",
"].-X<X].[.B.D.rXM.C.G.].yX;X#Xf.( D D I  . .b q 6 p p d D S , - 6 8 k C A | 3.H.6XOXH.%._ &.U.*X<X;X<X<X<X{.-X;X'.{.N.N.`.`.`.`.",
"-X).1X[.{.C.`.[.M.D.V.(.tX[.<X:X_.m.m.L U I A 0 q 8 d c Z I n i 6 - i x b Z ..z.bXz.P ` &.R.6X#X<X;X<X<X-X[.{.{.`.'.N.N.{.{.}.{.",
"-X).<X-X-X/.-X`.A.G.F.].sXyXD.<X|.!.[.c.n.K D ) S A S P J o.j.[ z p k ] I I z.qXAXU.d.E.E.vXAX;X;X[.;X<X{.'.{.|.[.{.N.N.{.}.'.^.",
"].-XuX(.].].].Z.B.{.G.].uX;X=XuX-X).[.V./.m.K A f z f k Y 6.k.b.y.l z / S #.8XSX8Xv.*.) &.cXCX:X[.{.<X<X}.[.<X|.'.[.!.V.`.}.'.}.",
").-X-X(.[.].G.7.7.{.G.}.;X;X-X;X[.(./.V.'.n.O.D ) ) (  .@.r.y.l.Q.h.z 6 ] 7XCXaX1Xv.<.<.L.8X2X[.<X[.;X<X[.{.;X{.'.{.!.V.`.{.'.{.",
"-X,X].].;X].M.u.8.}.D.D.;X;X=X;X).S.D.a./.].n.O.Z A ) { @.r.e.l.Q.W.] v H.Q.8X7X5XI.,.<..XqX,X{.<X{.<X|.{.{.yX[.{.{./.C.'.{.'.{.",
"-X4X].;X;X].u.C.u.D.D.D.;X;X].;X'.D.D.B./.].[.a.O.}  .%.*.d.d.H.Y.W.=.*.W.T.h.6X+XL.J.K.9XCX2X>X<X;X;X<X{.;X{.[.{.|./.!.}.{.}.{.",
"(.<X(.[.].`.p.].D.D.D.D.;X-X=X;X|._./.S.D.D.}.M.u.y.t.,.g.H.H.H.K.h.,.*.E.+XcXBXvXoX.X6XbXaX>X2X2X;X;X<X{.yX<X].{.{./.!.{.{.`.{.",
"(.1X].-X}.D.G.;XtXG.D.].sX;X].2X|././.D.{.A.].M.w.a.c.b.b.Y.L.W.Y.Y.OXW.W.vXCXAX0X&XwX1X4X4X{.tXyX;X;X4X<X{.;X'.|.{.`.C.'.'.~.}.",
"-X-X1X;X-XD.].D.{.B.`.D.sX;X-X;X[.(.D.D.].D.].B.u.Z.D./.D.@XT.Y.9XvXvXbXbXbXcXQ._.4XdX4XpXfX{.-X<X;XyXyXyX;X|.[.<X{./.!.{.'.!.[.",
"-X].2X].{.D.].G.A.B.;X`.;X;X;X;X-X].(.S.`.C.].B.u.S.D./.].;X:X%X%X9XT.W.6XQ.F.G.[.dX3X[.aXaX=X2X<X;XuXiX;X{.|.{.<X|.`.!.{.'.!.}."
};
