/* XPM */
static char *_8e75ba56b27449092b957c9e038c218z23QaMH9043AECr7[] = {
/* columns rows colors chars-per-pixel */
"64 64 66 1 ",
"  c #EA0000",
". c #EB0500",
"X c #EB0A00",
"o c #EB0B00",
"O c #EC0E00",
"+ c #EC0F00",
"@ c #EC1200",
"# c #EC1300",
"$ c #EC1400",
"% c #EC1700",
"& c #ED1A00",
"* c #ED1D00",
"= c #ED2000",
"- c #EE2400",
"; c #EE2500",
": c #EE2900",
"> c #EF2B00",
", c #EF2F00",
"< c #EF3200",
"1 c #F03300",
"2 c #F03400",
"3 c #F03900",
"4 c #F03A00",
"5 c #F03C00",
"6 c #F13F00",
"7 c #F14100",
"8 c #F14500",
"9 c #F24900",
"0 c #F24E00",
"q c #F35200",
"w c #F35500",
"e c #F35700",
"r c #F45B00",
"t c #F45C00",
"y c #F45D00",
"u c #F46000",
"i c #F46100",
"p c #F56400",
"a c #F56900",
"s c #F66C00",
"d c #F67100",
"f c #F77600",
"g c #F77900",
"h c #F77C00",
"j c #F87F00",
"k c #F88100",
"l c #F88300",
"z c #F88600",
"x c #F98800",
"c c #F98C00",
"v c #FA9000",
"b c #FA9700",
"n c #FA9900",
"m c #FB9D00",
"M c #FBA000",
"N c #FCA300",
"B c #FCA400",
"V c #FCAB00",
"C c #FDAE00",
"Z c #FDB300",
"A c #FDB500",
"S c #FEBB00",
"D c #FEBC00",
"F c #FFC300",
"G c #FFC400",
"H c #FFC800",
/* pixels */
"                                                                ",
"                                                                ",
"                                                                ",
"                                                                ",
"                                                                ",
"                                                                ",
"                                                                ",
"                                                                ",
"                                                                ",
"                                                                ",
"                                                                ",
"                                                                ",
"                                                                ",
"                      O&O               o&@                     ",
"                    OenCMa&           OrnCMa%                   ",
"                   @zGHHGGn:         &xFGHHGb=                  ",
"                  ojGGBfmGGm=       @xGGVfnGGb&                 ",
"                  rGGV: &bGHzo      aGGV: &bGGf                 ",
"                 ;CGFq   <DGDq     2SFF0   <SGD6                ",
"                 fGGm@   .lGGM%   oxGGn@   .zGHvO               ",
"                ;ZGGp     7SFGe   3DGGu     8FFD7               ",
"                aGGS,     %NGGmO .zGGA:     &VFGz.              ",
"               %BGGMO      gGGF6 ;AFGno     .zGGA:              ",
"               7FGGf       0FGGh yFFGs       wGFGu              ",
"               gGFF0       :SFGV;vGGF8       <DFGbo             ",
"              %BGGS,       OBGFDsAGGA=       %VGGA:             ",
"              3DGGB%       .zGFFAFFGm@       .vGFGw             ",
"              pGGGv.        pGFFGFFGz         fGGGl             ",
"             .cGGGf         9FFFFFGGa         wGGGB@            ",
"             %VGGGr         <DFFFGGG0         7DFGS,            ",
"             <DFGF7         *AFGFFGD2         ;SGFF0            ",
"             qGFGD,         OMGGFFGA;         %CGGGd            ",
"             fGFFA*         ovGGFFGC@         OnGGGv.           ",
"            .cGFGB@          zGGFFGm@         .cGGFC#           ",
"            @MGGGno          dGGFFGc.          jGFFA;           ",
"            *AGFHx.          uGFFFGl           sHGGS4           ",
"            1SFFGh           wGFGGGf           yGGGGq           ",
"            8FFFHs           8FFFGHp           0GFGGp           ",
"            rGFFGu           3FFFFGw           7FFFHg           ",
"            sGFFGw           <SFFFGq           3DFFGx.          ",
"            gGFFGq           :SFFFF8           ,SFGGbo          ",
"           .xHFFF7           ;AFFFF7           ;AGFFM#          ",
"           .bGGGS7           *AFGGD3           =AGFFC%          ",
"           OnGGGD<           *AFGGD2           &ZGFFZ*          ",
"           OBGFFS<           &CGFFS<           &VFFGA=          ",
"           %VGFGS:           &CGFFS,           %VFFGS:          ",
"           %VFFGA:           %CHGHD,           @BGFFD< ;5:.     ",
"           *CGFGA;           Oyaaap&           @BGFFD<&9qq;     ",
"           *AGGGA=                             @BGGGS2;8r3,     ",
"           *BDADC*                             @nSASA<o738%     ",
"           .;;;;=o                              =;;;;o O&O      ",
"                                                                ",
"                                                                ",
"                                                                ",
"                                                                ",
"                                                                ",
"                                                                ",
"                                                                ",
"                                                                ",
"                                                                ",
"                                                                ",
"                                                                ",
"                                                                ",
"                                                                "
};
